SplineFontDB: 3.2
FontName: LookMumNoComputer
FullName: LookMumNoComputer
FamilyName: LookMumNoComputer
Weight: Regular
Copyright: No Copyright (cC) 2020 Met Sender / Mehmet PINARCI 
Version: StraightUp
ItalicAngle: 0
UnderlinePosition: -100
UnderlineWidth: 50
Ascent: 800
Descent: 200
InvalidEm: 0
LayerCount: 2
Layer: 0 0 "Back" 1
Layer: 1 0 "Fore" 0
XUID: [1021 66 1585159542 6963]
FSType: 0
OS2Version: 0
OS2_WeightWidthSlopeOnly: 0
OS2_UseTypoMetrics: 1
CreationTime: 1583500179
ModificationTime: 1583589528
PfmFamily: 17
TTFWeight: 400
TTFWidth: 5
LineGap: 90
VLineGap: 0
OS2TypoAscent: 0
OS2TypoAOffset: 1
OS2TypoDescent: 0
OS2TypoDOffset: 1
OS2TypoLinegap: 90
OS2WinAscent: 0
OS2WinAOffset: 1
OS2WinDescent: 0
OS2WinDOffset: 1
HheadAscent: 0
HheadAOffset: 1
HheadDescent: 0
HheadDOffset: 1
OS2Vendor: 'PfEd'
MarkAttachClasses: 1
DEI: 91125
LangName: 1033
Encoding: ISO8859-1
UnicodeInterp: none
NameList: AGL For New Fonts
DisplaySize: -48
AntiAlias: 1
FitToEm: 0
WinInfo: 0 38 5
BeginPrivate: 0
EndPrivate
TeXData: 1 0 0 294650 173015 115343 585282 1048576 115343 783286 444596 497025 792723 393216 433062 380633 303038 157286 324010 404750 52429 2506097 1059062 262144
BeginChars: 258 96

StartChar: A
Encoding: 65 65 0
Width: 646
VWidth: 0
Flags: HW
LayerCount: 2
Fore
SplineSet
63 77 m 1
 63 78 17 116 16 117 c 0
 55 194 86 276 114 359 c 1
 36 359 l 2
 36 360 -9 400 -10 400 c 1
 -9 400 36 439 36 440 c 2
 140 439 l 1
 178 556 214 672 267 776 c 1
 314 816 l 2
 315 816 327 806 328 805 c 0
 328 804 374 765 374 764 c 0
 433 682 570 188 590 133 c 2
 632 30 l 2
 631.010751432 30 585.983930021 -8.16589646354 585.983930021 -9.95466376552 c 0
 585.983930021 -9.97410459175 585.989248568 -9.98924856828 586 -10 c 1
 585 -9 540 30 539 30 c 2
 497 133 l 2
 480 179 387 516 319 685 c 1
 300 639 271 543 235 439 c 1
 345 438 l 2
 346 437 391 398 392 398 c 1
 391 398 346 358 345 357 c 2
 208 358 l 1
 177 270 143 182 110 117 c 0
 109 116 63 78 63 77 c 1
EndSplineSet
Validated: 524289
EndChar

StartChar: B
Encoding: 66 66 1
Width: 595
VWidth: 0
Flags: HW
LayerCount: 2
Fore
SplineSet
71 347 m 1
 92 360 l 2
 92 359.986666667 92.0133333333 359.980088889 92.0396444444 359.980088889 c 0
 93.9866666667 359.980088889 167 396 167 396 c 1
 167 396 322 455 399 489 c 2
 455 514 l 1
 374 535 l 1
 134 604 l 1
 61 642 l 1
 66 587 l 1
 66 505 67 429 71 347 c 1
83 11 m 1
 186 27 l 1
 223 46 502 143 502 143 c 2
 503 143 552 160 553 161 c 1
 504 174 418 198 414 199 c 0
 314 223 120 286 120 286 c 1
 93 300 l 1
 73 312 l 1
 75 275 78 239 83 202 c 1
 83 109 l 1
 83 11 l 1
26 -23 m 1
 19 -16 13 -10 13 -10 c 2
 13 -4 l 2
 13 15 13 89 13 109 c 2
 13 202 l 1
 -0.122500777294 296.773616725 -2.61537027989 392.078715014 -2.61537027989 487.915294866 c 0
 -2.61537027989 523.536770655 -2.27097217904 559.231672367 -2 595 c 1
 -6.95459231495 612.616328231 -9.18163074019 627.202041029 -9.18163074019 638.923976882 c 0
 -9.18163074019 648.494897428 -7.6969384567 656.156633344 -5 662 c 0
 -4 663 29 698 30 698 c 2
 49 718 l 2
 50 717 66 711 67 711 c 2
 135 683 l 2
 137 681 308 620 372 612 c 1
 546 555 l 1
 581 520 l 1
 546 484 l 1
 399 418 l 2
 336 392 206 345 201 342 c 1
 282 316 338 288 414 270 c 0
 418 269 576 226 576 225 c 0
 576 224 619 189 619 188 c 0
 619 187 611 162 610 162 c 0
 609 161 572 126 571 126 c 2
 535 100 l 2
 534 99 503 78 502 78 c 0
 400 22 223 -25 186 -44 c 1
 54 -65 l 2
 53 -64 20 -29 19 -29 c 1
 19 -29 22 -27 26 -23 c 1
EndSplineSet
Validated: 524289
EndChar

StartChar: C
Encoding: 67 67 2
Width: 529
VWidth: 0
Flags: HW
LayerCount: 2
Fore
SplineSet
442 746 m 1
 441.993630833 745.993630833 441.990466403 745.9872211 441.990466403 745.980771576 c 0
 441.990466403 744.974604466 519.006369167 743 520 743 c 0
 499 722 451 673 429 653 c 0
 428 653 388 617 388 616 c 0
 289 527 188 438 93 354 c 1
 93 338 126 318 130 315 c 0
 131 314 186 268 187 267 c 2
 187 267 l 1
 283 194 436 86 436 86 c 1
 476 56 l 2
 477 56 537 11 538 10 c 1
 538 10 438 -3 438 -3 c 2
 415 12 l 1
 415 12 255 123 159 196 c 0
 158 197 124 225 123 226 c 0
 102 242 86 257 86 257 c 0
 85.9841269841 256.984126984 85.9604434366 256.976316453 85.9291973109 256.976316453 c 0
 83.9919375157 256.976316453 52.9841269841 287 52 287 c 0
 21 316 2 341 2 357 c 0
 2 358 33 387 34 387 c 0
 34 388 67 417 67 418 c 0
 166 508 228 554 363 672 c 1
 363 672 383 691 408 715 c 0
 409 716 441 745 442 746 c 1
EndSplineSet
Validated: 524289
EndChar

StartChar: D
Encoding: 68 68 3
Width: 667
VWidth: 0
Flags: HW
LayerCount: 2
Fore
SplineSet
81 93 m 1
 81 93 109 109 109 109 c 2
 262 197 l 1
 630 380 l 1
 570 423 l 1
 345 570 l 1
 136 721 l 2
 135 721 131 704 131 705 c 1
 113 502 138 449 81 93 c 1
80 742 m 0
 81 747 83 774 83 774 c 0
 84 774 114 797 114 797 c 0
 114 797 133 786 138 783 c 2
 345 645 l 1
 570 498 l 1
 569.888198758 498.111801242 569.833339763 498.17464604 569.833339763 498.190320038 c 0
 569.833339763 498.192932371 569.834863624 498.194234405 569.837901701 498.194234405 c 0
 570.79489603 498.194234405 722 369 722 369 c 1
 274 123 l 2
 72 22 l 1
 31 20 l 2
 28 20 26 20 23 19 c 2
 -9 17 l 1
 -9 17 74 671 80 742 c 0
EndSplineSet
Validated: 524289
EndChar

StartChar: E
Encoding: 69 69 4
Width: 556
VWidth: 0
Flags: HW
LayerCount: 2
Fore
SplineSet
97 140 m 1
 496 62 l 2
 496.963190852 61.8117070515 525 26 525 26 c 1
 525 26 537 -17.4287109375 537 -20 c 4
 537 -20.091796875 536.983398438 -20.1396484375 536.94921875 -20.1396484375 c 6
 12 76 l 1
 -17 112 l 1
 362 765 l 0
 362.707106781 765.707106781 390 801 391 802 c 1
 390.989819057 800.810125411 478.921875 784.369140625 478 784 c 0
 187.096928796 307.382101811 l 1
 187.096928796 307.382101811 392.000000012 341.355468744 392 341.35546875 c 1
 392.763950227 342.000578374 426.416992188 305.65625 427.35546875 306 c 1
 426.416992188 305.65625 391.037226024 270.914443546 392 270.64453125 c 2
 392 270.64453125 242.517273689 250.981351264 144.788939007 227.233583281 c 1
 127.779794779 195.347111409 111.761085073 165.910415287 97 140 c 1
EndSplineSet
EndChar

StartChar: c
Encoding: 99 99 5
Width: 586
VWidth: 0
Flags: HW
LayerCount: 2
Fore
SplineSet
457 795 m 1
 457 795 537 782 559 775 c 1
 58 151 l 1
 591 66 l 1
 628 29 l 1
 650 -12 l 1
 -1 79 l 1
 -35 120 l 1
 426 758 l 1
 457 795 l 1
EndSplineSet
Validated: 1
EndChar

StartChar: one
Encoding: 49 49 6
Width: 218
VWidth: 0
Flags: HW
LayerCount: 2
Fore
SplineSet
116 742 m 1
 116 741 171 717 172 716 c 2
 172 707 l 2
 172 567 156 303 156 303 c 1
 159 36 l 2
 159 35 124 2 124 1 c 1
 124 2 61 11 61 12 c 2
 88 650 l 1
 88 650 24 658 24 660 c 2
 24 669 l 2
 25 670 116 741 116 742 c 1
EndSplineSet
Validated: 1
EndChar

StartChar: two
Encoding: 50 50 7
Width: 545
VWidth: 0
Flags: HW
LayerCount: 2
Fore
SplineSet
47 137 m 0
 164 315 l 0
 305 520 l 1
 67 599 l 0
 67 598.979492188 66.9794921875 598.969726562 66.939453125 598.969726562 c 0
 65.01953125 598.969726562 17.9794921875 622 17 622 c 1
 18 622 44 668 44 668 c 0
 156 651 249 624 353 573 c 1
 353 573 382 556 385 544 c 0
 385.727539062 540.181640625 386.024414062 536.131835938 386.024414062 532.061523438 c 0
 386.024414062 513.744140625 380 495 380 495 c 1
 380 495 192 255 192 255 c 0
 192 255 161 215 154 204 c 1
 337 189 l 1
 402 187 l 2
 403 187 476 183 477 183 c 1
 476.990234375 183 476.986328125 182.993164062 476.986328125 182.98046875 c 0
 476.986328125 181.623046875 529 109 529 109 c 2
 356 107 l 1
 47 137 l 0
EndSplineSet
Validated: 524289
EndChar

StartChar: six
Encoding: 54 54 8
Width: 622
VWidth: 0
Flags: HW
LayerCount: 2
Fore
SplineSet
450 719 m 1
 449.010099969 719 400.984900531 658.246071598 400.984900531 657.018845988 c 0
 400.984900531 657.006324581 400.989900031 657 401 657 c 0
 332 563 l 0
 332 563 200 388 146 295 c 1
 147 296 162 295 162 296 c 2
 550 307 l 1
 583 277 l 2
 583 277 575 250 575 248 c 0
 524 100 l 0
 524 100 510 59 502 39 c 0
 501 38 486 7 486 6 c 0
 471 -17 l 0
 471 -16.9873417722 470.99567377 -16.9810927736 470.987128807 -16.9810927736 c 0
 470.320621695 -16.9810927736 443.987341772 -55 443 -55 c 0
 332 -3 l 0
 111 103 l 0
 110 103 77 128 77 129 c 0
 47 154 l 0
 46 154 17 183 17 183 c 0
 248 571 l 0
 345 692 l 2
 375 721 l 1
 380 721 l 2
 381 721 449 719 450 719 c 1
113 236 m 1
 94 188 l 1
 333 70 l 0
 424 31 l 1
 457 102 l 1
 457 102 498 208 512 246 c 1
 148 237 l 2
 147 237 113 236 113 236 c 1
EndSplineSet
Validated: 524289
EndChar

StartChar: P
Encoding: 80 80 9
Width: 444
VWidth: 0
Flags: HW
LayerCount: 2
Fore
SplineSet
58 740 m 1
 84 732 l 0
 104 705 l 1
 113 694 l 1
 287 658 l 0
 360 642 l 0
 381 620 l 0
 397 600 l 0
 378 577 l 0
 343 542 l 0
 274 481 l 2
 148 380 l 1
 149 340 l 0
 153 212 l 2
 167 74 l 2
 167 73 130 37 130 37 c 1
 95 72 l 2
 82.64453125 212 l 2
 78.856666034 254.920357047 76 340 76 340 c 4
 27 713 l 0
 58 740 l 1
119.811523438 622.932617188 m 1
 130.186523438 565.599609375 138.153320312 506.192382812 143.280273438 446.780273438 c 1
 274 551.35546875 l 2
 297.0703125 573.114257812 306.342773438 581.708984375 309.720703125 584.73828125 c 1
 249.59765625 604.853515625 181.396484375 615.18359375 119.811523438 622.932617188 c 1
EndSplineSet
Validated: 524289
EndChar

StartChar: three
Encoding: 51 51 10
Width: 601
VWidth: 0
Flags: HW
LayerCount: 2
Fore
SplineSet
561 306 m 4
 561.005464481 305.994535519 561.008181791 305.986353728 561.008181791 305.975484324 c 4
 561.008181791 303.997252829 471 212.994535519 471 212 c 4
 308 88 l 5
 158 8 l 5
 92 5 l 6
 92 5 85 10 84 10 c 5
 85 10 95 67 96 67 c 6
 149 95 l 5
 260 144 l 5
 477 285 l 5
 408 320 l 4
 408 320 268 389 268 389 c 4
 268 389 166 443 128 457 c 5
 93 492 l 6
 92.9896907216 492 92.9845892231 492.004251249 92.9845892231 492.012664996 c 4
 92.9845892231 492.810309016 138.834349177 531.018442311 139.978234649 531.018442311 c 4
 139.992684042 531.018442311 140 531.012345679 140 531 c 4
 344 594 l 4
 343.988765479 594 343.983210609 594.001262145 343.983210609 594.003758075 c 4
 343.983210609 594.223428271 387.011234521 604 388 604 c 5
 388 604 242 639 208 653 c 4
 149 677 100 681 44 709 c 4
 43 709 10 744 9 744 c 5
 10 744 43 779 44 779 c 4
 100 751 149 747 208 723 c 4
 240 710 465 655 465 655 c 4
 464.985915493 654.985915493 464.978972426 654.965483039 464.978972426 654.938881454 c 4
 464.978972426 653.076770482 499 620.985915493 499 620 c 4
 499 619 495 611 494 611 c 4
 494 610 474 589 473 588 c 4
 439 566 l 4
 439.006135202 566.006135202 439.009183866 566.010840057 439.009183866 566.014132116 c 4
 439.009183866 566.017995818 439.004984522 566.019913482 438.996647061 566.019913482 c 4
 437.869635082 566.019913482 361.130364918 530.980086518 360.003352939 530.980086518 c 4
 359.995015478 530.980086518 359.990816134 530.982004182 359.990816134 530.985867884 c 4
 359.990816134 530.989159943 359.993864798 530.993864798 360 531 c 4
 242 495 l 5
 284 468 l 4
 491 352 l 4
 491 351 560 307 561 306 c 4
EndSplineSet
Validated: 524289
EndChar

StartChar: four
Encoding: 52 52 11
Width: 536
VWidth: 0
Flags: HW
LayerCount: 2
Fore
SplineSet
98 775 m 1
 98 774 133 741 133 740 c 0
 133 733 133 727 133 720 c 0
 133 640 110 479 109 462 c 1
 110 462 153 452 154 451 c 0
 158.108445825 450.367931412 162.791188282 450.085434686 167.933805078 450.085434686 c 0
 195.335863905 450.085434686 235.794737326 458.10612003 272 464 c 1
 275 648 l 2
 275 648 271 708 271 708 c 0
 271 713 271 719 271 724 c 0
 271 725 306 758 306 759 c 1
 306 758 341 725 341 724 c 0
 341 719 341 713 341 708 c 0
 341 708 345 648 345 648 c 2
 343 471 l 1
 370 471 l 1
 486 447 l 2
 487 447 520 412 521 412 c 1
 520 412 487 377 486 377 c 2
 370 401 l 1
 342 401 l 1
 337 28 l 2
 337 27 302 -6 302 -7 c 1
 302 -6 267 27 267 28 c 2
 271 394 l 1
 236.012772862 387.490748439 197.715361671 379.657423258 170.651870408 379.657423258 c 0
 164.453791107 379.657423258 158.844932428 380.068282225 154 381 c 0
 150.798189897 381.474342237 147.554192189 381.681496312 144.294688694 381.681496312 c 0
 121.800154398 381.681496312 98.5671295528 371.815417268 83.3654621976 371.815417268 c 0
 82.1946662877 371.815417268 81.0715100649 371.873939992 80 372 c 0
 79 372 46 407 45 407 c 0
 44 407 31 427 31 428 c 0
 31 522 63 620 63 720 c 0
 63 727 63 733 63 740 c 0
 63 741 98 774 98 775 c 1
EndSplineSet
Validated: 524289
EndChar

StartChar: F
Encoding: 70 70 12
Width: 436
VWidth: 0
Flags: HW
LayerCount: 2
Fore
SplineSet
412 456 m 4
 208 369 l 5
 169 357 l 5
 172 261 l 5
 196 14 l 4
 196 13 118 13 118 12 c 5
 118 13 103 336 102 337 c 4
 33 310 l 6
 32 310 -7 337 -8 337 c 5
 -7 337 4 374 5 374 c 6
 96 410 l 5
 98 444 l 4
 91 682 l 4
 391 771 l 4
 391.019607843 771.019607843 391.063052672 771.029219531 391.129399703 771.029219531 c 4
 394.44675125 771.029219531 455.019607843 747 456 747 c 5
 455 747 425 704 424 704 c 4
 162 638 l 4
 175 442 l 5
 396 515 l 5
 412 456 l 4
EndSplineSet
Validated: 524289
EndChar

StartChar: I
Encoding: 73 73 13
Width: 436
VWidth: 0
Flags: HW
LayerCount: 2
Fore
SplineSet
226 800 m 1
 226 799 261 766 261 765 c 2
 256 657 l 1
 277 654 325 647 325 647 c 1
 400 632 l 2
 400.961538462 631.807692308 435 602 436 602 c 1
 435 602 400.948477704 561.810304459 400 562 c 2
 325 577 l 1
 263 585 l 1
 267 199 l 1
 376 204 l 1
 409 206 l 2
 409.518826831 206.03144405 450 170 451 170 c 1
 429 139 406 136 406 136 c 2
 403 136 l 1
 274 120 l 1
 275 49 l 2
 275.01402845 48.0039800442 233 25 233 24 c 1
 233 25 195.968780488 59.0009756098 196 60 c 2
 198 124 l 1
 84 118 l 2
 83 118 36 153 35 153 c 1
 36 153 81 186 82 186 c 2
 196 195 l 1
 192.456054688 588.407226562 l 1
 147.014648438 587.294921875 62.9976294811 583.100268744 58 582.64453125 c 2
 29 580 l 2
 28.29296875 580 14.64453125 618 13.64453125 618 c 1
 14.64453125 618 37.29296875 648.29296875 38 649 c 2
 58 653.35546875 l 2
 191.731445312 659.099609375 l 1
 190.645507812 765 l 2
 191.352539062 765.70703125 226 799 226 800 c 1
EndSplineSet
Validated: 524325
EndChar

StartChar: L
Encoding: 76 76 14
Width: 605
VWidth: 0
Flags: HW
LayerCount: 2
Fore
SplineSet
212 828 m 1
 212 827.975594866 212.052413731 827.963697553 212.154682866 827.963697553 c 0
 216.140620787 827.963697553 295.859379213 846.036302447 299.845317134 846.036302447 c 0
 299.947586269 846.036302447 300 846.024405134 300 846 c 0
 204 602 63 185 60 85 c 1
 600 86 l 2
 601 86 609 57 610 57 c 1
 609 57 606 16 605 16 c 2
 37 0 l 1
 -9 20 l 1
 -9.59212833436 24.1448983405 -9.879902533 29.112770264 -9.879902533 34.8431831013 c 0
 -9.879902533 145.244612058 96.9344027863 538.681415161 192 783 c 0
 192 783 212 827 212 828 c 1
EndSplineSet
Validated: 524289
EndChar

StartChar: R
Encoding: 82 82 15
Width: 646
VWidth: 0
Flags: HW
LayerCount: 2
Fore
SplineSet
515 503 m 1024
92 530 m 1
 94 696 l 0
 94 697.000137796 53 724 53 725 c 1
 53 724 21.9830830052 705.000726627 22 704.000976562 c 0
 24.7578125 541.021484375 24.546875 378.0078125 25 215.000976562 c 1
 31 131.000976562 l 2
 31.70703125 130.293945312 66.2841796875 96.642578125 66.35546875 95.6455078125 c 1
 66.2841796875 96.642578125 101.002929688 130.293945312 101.7109375 131.000976562 c 2
 95.7099609375 215.000976562 l 1
 95.49609375 292.038085938 93.5654296875 340.122070312 93.2646484375 417.157226562 c 1
 90.5322265625 418.263671875 92.2646484375 449.157226562 92.2646484375 449.157226562 c 0
 92.2646484375 449.157226562 112.96484375 452.088867188 125 445 c 0
 217.283203125 390.646484375 414.974609375 233.15234375 483.35546875 188.645507812 c 1
 570.35546875 119.645507812 l 2
 571.0625 120.352539062 604.926757812 155.622070312 605.7109375 155.000976562 c 1
 604.926757812 155.622070312 571.0625 189.649414062 570.35546875 190.356445312 c 2
 483.35546875 259.356445312 l 1
 404.940429688 310.39453125 210 521 96 499 c 1
 160 509 525 499 545 504 c 0
 550.295898438 505.32421875 539.348632812 518.795898438 534.477539062 524.275390625 c 0
 533.813476562 525.022460938 499.786132812 558.8828125 499.122070312 559.630859375 c 0
 477.203125 584.28515625 384.341796875 627.390625 300.35546875 679.356445312 c 1
 107 773 l 2
 106.734779448 773.128448373 79.884765625 753.533203125 79 754 c 1
 79.884765625 753.533203125 140.510734577 693.09178247 141.35546875 692.645507812 c 2
 300.35546875 608.645507812 l 1
 360.506835938 571.427734375 424.454101562 537.774414062 424.454101562 537.774414062 c 1
 401.029296875 538.686523438 323 538 323 538 c 0
 162 532 l 0
 131 530 l 1
 131 530 94.365234375 527.008789062 92 530 c 1
EndSplineSet
Validated: 524325
EndChar

StartChar: O
Encoding: 79 79 16
Width: 603
VWidth: 0
Flags: HW
LayerCount: 2
Fore
SplineSet
285 585 m 0
 285 585.001834862 284.999255955 585.00275061 284.997770595 585.00275061 c 0
 284.189734871 585.00275061 64 314 64 314 c 2
 131 270 l 1
 216 204 298 155 314 148 c 1
 368 213 488 371 488 371 c 0
 285 585 l 0
-7 319 m 0
 235 619 l 0
 235 619 249 637 249 638 c 1
 249.01369863 637.98630137 249.032088572 637.979545881 249.055041296 637.979545881 c 0
 250.707637455 637.979545881 276.01369863 673 277 673 c 2
 304 649 l 1
 332 623 l 1
 332 623 545 404 572 352 c 0
 572.383219955 351.204081633 572.569181565 350.236105326 572.569181565 349.106906724 c 0
 572.569181565 311.930214263 371 100 371 100 c 1
 344 74 l 1
 315 74 -7 319 -7 319 c 0
EndSplineSet
Validated: 524289
EndChar

StartChar: l
Encoding: 108 108 17
Width: 529
VWidth: 0
Flags: HW
LayerCount: 2
Fore
SplineSet
237.955078125 828.256835938 m 1
 237.590820312 827.326171875 325.950195312 846.530273438 325.584960938 845.599609375 c 0
 230.234375 602.44140625 129.98828125 271.763671875 86.443359375 84.5498046875 c 1
 429.659179688 189.01953125 l 2
 430.358398438 189.171875 474.434570312 168.401367188 475.369140625 168.756835938 c 1
 474.434570312 168.401367188 504.6796875 138.157226562 504 138 c 2
 63 0 l 1
 17.2900390625 20.263671875 l 1
 52.3486328125 300.766601562 117.5390625 526.33984375 217.692382812 782.547851562 c 0
 218.056640625 783.478515625 237.590820312 827.326171875 237.955078125 828.256835938 c 1
EndSplineSet
Validated: 524325
EndChar

StartChar: e
Encoding: 101 101 18
Width: 553
VWidth: 0
Flags: HW
LayerCount: 2
Fore
SplineSet
238 791 m 1
 237 790 324 789 323 788 c 0
 307 765 239 681 239 681 c 1
 186 615 l 1
 132 507 l 2
 114 464 95 418 85 373 c 1
 358 380 l 1
 367 380 l 2
 368 380 401 345 402 345 c 1
 401 345 368 310 367 310 c 2
 358 309.64453125 l 1
 75.0263671875 301.997070312 l 1
 70.966796875 262.022460938 69.2978515625 220.908203125 75.35546875 183 c 0
 76.9453125 161.08203125 87.318359375 126.86328125 87.318359375 126.86328125 c 2
 89.513671875 125.450195312 122.189453125 101.059570312 127 95.35546875 c 0
 134.9765625 85.89453125 188.814453125 85.46484375 202 83.35546875 c 2
 511 77.35546875 l 1
 580 74.35546875 l 2
 580.70703125 73.6484375 614.356445312 39.04296875 615.35546875 39 c 1
 614.356445312 39.04296875 580.70703125 4.3515625 580 3.64453125 c 2
 511 6.64453125 l 1
 202 12.64453125 l 1
 127 24.64453125 l 1
 121.23046875 31.486328125 92.287109375 52.9541015625 85 57.6455078125 c 0
 65.1279296875 76.7587890625 62.94921875 79.7421875 60.16015625 81.5380859375 c 0
 59.5908203125 82.359375 25.375 116.071289062 24.8046875 116.893554688 c 0
 12.07421875 135.252929688 6.453125 158.079101562 4.64453125 183 c 0
 -2.3154296875 226.555664062 0.9248046875 274.345703125 6.2724609375 319.774414062 c 1
 -1.9541015625 328.111328125 -9.8779296875 336.012695312 -10.35546875 336 c 1
 -9.7822265625 336.015625 1.5283203125 347.408203125 11.2060546875 357.256835938 c 1
 20.1171875 407.459960938 41.1396484375 459.040039062 61.64453125 507 c 2
 115.64453125 615 l 1
 161 686 l 1
 212 756 l 0
 212.935546875 755.646484375 237 790 238 791 c 1
EndSplineSet
Validated: 524325
EndChar

StartChar: T
Encoding: 84 84 19
Width: 403
VWidth: 0
Flags: HW
LayerCount: 2
Fore
SplineSet
187 779 m 1
 187 778 221.918945312 744.99609375 222 744 c 2
 245 463 l 1
 277 467 310 469 344 469 c 2
 353 469 l 2
 354 469 387 434 388 434 c 1
 387 434 354 399 353 399 c 2
 344 398.64453125 l 2
 310.642578125 398.64453125 278.025390625 395.9296875 246.044921875 392.637695312 c 1
 228.35546875 219 l 1
 212 72 l 2
 211.29296875 71.29296875 176.624023438 37.64453125 176.64453125 36.64453125 c 1
 176.624023438 37.64453125 141.99609375 71.29296875 141.2890625 72 c 2
 157.64453125 219 l 1
 175.419921875 385.188476562 l 1
 169.59375 384.6328125 163.787109375 384.114257812 158 383.64453125 c 2
 65 368.64453125 l 2
 64.29296875 369.3515625 30.6318359375 404.159179688 29.64453125 404 c 1
 30.6318359375 404.159179688 64.29296875 438.6484375 65 439.35546875 c 2
 158 454.35546875 l 2
 163.51953125 454.802734375 169.057617188 455.295898438 174.612304688 455.822265625 c 1
 151.64453125 744 l 2
 151.588867188 744.700195312 187 778 187 779 c 1
EndSplineSet
EndChar

StartChar: t
Encoding: 116 116 20
Width: 427
VWidth: 0
Flags: HW
LayerCount: 2
Fore
SplineSet
142 551 m 1
 205 622 267 693 337 758 c 0
 338 758 372 722 372 723 c 1
 372 722 338 688 337 688 c 0
 281 636 220 556 162 495 c 1
 143 471 l 1
 144 96 l 2
 144 95 109 62 109 61 c 1
 109 62 74 95 74 96 c 2
 72 393 l 1
 69 390 67 388 67 388 c 1
 68 388 32.3515625 422.29296875 31.64453125 423 c 2
 71.8740234375 471.275390625 l 1
 70.64453125 732 l 2
 71.3515625 732.70703125 106 766.35546875 106 767.35546875 c 1
 106 766.35546875 140.6484375 732.70703125 141.35546875 732 c 2
 142 551 l 1
EndSplineSet
EndChar

StartChar: J
Encoding: 74 74 21
Width: 608
VWidth: 0
Flags: HW
LayerCount: 2
Fore
SplineSet
16 54 m 0
 16 54 236 164 284 240 c 1
 290 669 l 1
 14 667 l 2
 13 667 -22 686 -23 686 c 1
 -22 686 13 737 14 737 c 2
 305 740 l 1
 315 750 315 751 326 751 c 24
 337 751 337 750 346 741 c 1
 601 749 l 2
 602 748 630 708 631 708 c 1
 630 708 597 673 596 673 c 2
 361 670 l 1
 361 670 366.915555556 461.88 366.915555556 325.642962963 c 0
 366.915555556 276.102222222 366.133333333 236.066666667 364 219 c 0
 352 126 301 102 301 102 c 1
 243 54 16 54 16 54 c 0
EndSplineSet
Validated: 524289
EndChar

StartChar: k
Encoding: 107 107 22
Width: 451
VWidth: 0
Flags: HW
LayerCount: 2
Fore
SplineSet
49 770.354492188 m 1
 49 770.353515625 49 770.3515625 49 770.350585938 c 0
 49 769.27734375 83.6494140625 735.706054688 84.35546875 735 c 0
 83.763671875 728.005859375 83.564453125 721.010742188 83.564453125 714.016601562 c 0
 83.564453125 702.010742188 84.15234375 690.005859375 84.35546875 678 c 0
 84.35546875 568.375976562 94.201171875 461.150390625 103.555664062 353.215820312 c 1
 141.084960938 369.493164062 187.408203125 392.967773438 213.403320312 392.967773438 c 0
 215.779296875 392.967773438 217.985351562 392.771484375 220 392.35546875 c 1
 255.35546875 357 l 1
 255.35546875 309.489257812 179.516601562 204.3984375 176.602539062 197.846679688 c 1
 261.334960938 171.376953125 353.509765625 171.793945312 433.000976562 131.35546875 c 0
 433.708007812 130.6484375 467.46484375 96.453125 468.35546875 96 c 1
 468.349609375 96.0029296875 468.342773438 96.00390625 468.333984375 96.00390625 c 0
 467.033203125 96.00390625 433.703125 61.3466796875 433.000976562 60.64453125 c 0
 341.211914062 107.338867188 227.330078125 100.369140625 139 141.64453125 c 1
 122.639648438 158.004882812 l 1
 135.35546875 69 l 2
 134.649414062 68.2939453125 100 34.771484375 100 33.6513671875 c 0
 100 33.6484375 100 33.646484375 100 33.64453125 c 1
 99.8583984375 34.634765625 65.3515625 68.29296875 64.64453125 69 c 2
 43.64453125 216 l 1
 33.5517578125 371.104492188 13.64453125 522.12890625 13.64453125 678 c 0
 13.44140625 690.005859375 12.853515625 702.010742188 12.853515625 714.016601562 c 0
 12.853515625 721.010742188 13.052734375 728.005859375 13.64453125 735 c 0
 14.3515625 735.70703125 48.916015625 769.358398438 49 770.354492188 c 1
109.299804688 284.939453125 m 1
 111.13671875 262.030273438 112.853515625 239.060546875 114.354492188 216 c 1
 131.005859375 250.330078125 162.283203125 286.255859375 173.623046875 313.279296875 c 1
 173.623046875 313.279296875 138.987304688 297.532226562 109.299804688 284.939453125 c 1
EndSplineSet
Validated: 524289
EndChar

StartChar: G
Encoding: 71 71 23
Width: 520
VWidth: 0
Flags: HW
LayerCount: 2
Fore
SplineSet
534 315 m 17
 516 276 316 28 307 28 c 0
 289 28 141 151 93 192 c 0
 93 193 53 234 52 235 c 0
 8 279 -10 308 -10 321 c 1
 60 483 176 634 308 747 c 0
 308 748 342 770 343 771 c 1
 342.986664263 770.986664263 342.980086518 770.969593847 342.980086518 770.948888362 c 0
 342.980086518 769.437667754 378.019913482 748.562332246 378.019913482 747.051111638 c 0
 378.019913482 747.030406153 378.013335737 747.013335737 378 747 c 0
 272 612 130 483 60 321 c 1
 60 309 198 182 198 182 c 0
 198 182 289 98 307 98 c 0
 311 98 321 101 328 110 c 0
 394.341351801 202.301011202 453.28732455 289.055488114 453.28732455 299.15916357 c 0
 453.28732455 299.564071185 453.192655667 299.845875467 453 300 c 2
 453.003584183 300.003584183 453.005369875 300.008453003 453.005369875 300.014597205 c 0
 453.005369875 301.722707519 314.996415817 402 314 402 c 1
 315 402 351 444 351 444 c 2
 534 315 l 17
EndSplineSet
Validated: 524289
EndChar

StartChar: H
Encoding: 72 72 24
Width: 421
VWidth: 0
Flags: HW
LayerCount: 2
Fore
SplineSet
85 773 m 1
 85 772 120 739 120 738 c 0
 118 683 122 628 117 573 c 1
 117 527 l 1
 298 527 l 1
 297 577 296 628 296 678 c 1
 302 706 292 734 296 762 c 0
 296 763 331 796 331 797 c 1
 331 796 366 763 366 762 c 0
 363 734 372 706 366 678 c 1
 366 590 370 502 372 414 c 1
 390 252 l 2
 390 251 355 218 355 217 c 1
 355 218 320 251 320 252 c 2
 302 414 l 1
 301 428 301 442 301 457 c 1
 239 457 178 457 117 457 c 1
 117 285 l 1
 123 201 l 2
 123 200 88 167 88 166 c 1
 88 167 53 200 53 201 c 2
 46.64453125 285 l 1
 46.64453125 573 l 1
 51.337890625 627.940429688 47.6552734375 682.985351562 49.64453125 738 c 0
 50.3515625 738.70703125 85 772 85 773 c 1
EndSplineSet
Validated: 524325
EndChar

StartChar: M
Encoding: 77 77 25
Width: 667
VWidth: 0
Flags: HW
LayerCount: 2
Fore
SplineSet
281 314 m 0
 281 314 470.512695312 571.0703125 493.482421875 610.520507812 c 1
 509.483398438 519.078125 535.788085938 436.758789062 550.645507812 360 c 1
 580.64453125 95.9990234375 l 2
 581.3515625 95.2919921875 615.88671875 61.6376953125 616 60.64453125 c 1
 615.88671875 61.6376953125 667.29296875 74.29296875 668 75 c 2
 621.35546875 360 l 1
 601.103515625 464.634765625 562 702 562 702 c 2
 555.35546875 735 l 1
 520 770.354492188 l 1
 484.64453125 735 l 1
 276.586914062 381.565429688 l 1
 243.35546875 437.999023438 l 0
 243.35546875 437.999023438 151.64453125 595 148 605 c 1
 86 682 l 2
 -1 112 l 2
 -1 112 79.107421875 95.005859375 79 96 c 0
 78.892578125 96.994140625 80 141 80 142 c 0
 80 162.989257812 119.640625 527.301757812 119.640625 527.301757812 c 1
 181 436 l 0
 281 314 l 0
EndSplineSet
Validated: 524329
EndChar

StartChar: N
Encoding: 78 78 26
Width: 513
VWidth: 0
Flags: HW
LayerCount: 2
Fore
SplineSet
408 54 m 8
 451.499023438 9.1455078125 494.97265625 175.87890625 492.35546875 210 c 0
 491.118164062 226.133789062 480.35546875 576.000976562 480.35546875 576.000976562 c 2
 471.354492188 696 l 2
 470.647460938 696.70703125 436.07421875 730.358398438 436 731.35546875 c 1
 436.07421875 730.358398438 401.3515625 696.70703125 400.64453125 696 c 2
 409.64453125 576.000976562 l 1
 409.64453125 576.000976562 427.762695312 243.133789062 429 227 c 0
 431.783203125 190.721679688 424.302734375 154.71875 418.649414062 127.557617188 c 1
 344 232 l 1
 81.35546875 612 l 1
 46 647.354492188 l 1
 10.64453125 612 l 1
 19 408 l 0
 19 408 20.2021484375 238.546875 28.64453125 153 c 0
 30.322265625 136 26.6015625 119 28.64453125 101.999023438 c 0
 29.3515625 101.291992188 63.880859375 67.63671875 64 66.64453125 c 1
 63.880859375 67.63671875 98.6484375 101.291992188 99.35546875 101.999023438 c 0
 97.3115234375 119 101.033203125 136 99.35546875 153 c 0
 99.35546875 238.962890625 96.35546875 324.935546875 96.35546875 411 c 1
 113.345703125 381.353515625 356.102539062 107.514648438 408 54 c 8
EndSplineSet
Validated: 524329
EndChar

StartChar: Q
Encoding: 81 81 27
Width: 531
VWidth: 0
Flags: HW
LayerCount: 2
Fore
SplineSet
-9.30078125 296.48828125 m 1
 142.083007812 650.504882812 l 2
 142.268554688 651.220703125 150.918945312 672.044921875 151.139648438 672.75390625 c 1
 151.869140625 672.411132812 167.732421875 714.063476562 167.732421875 714.063476562 c 1
 201.098632812 698.396484375 l 1
 234.446289062 680.938476562 l 1
 234.446289062 680.938476562 499.245117188 527.711914062 538.80078125 484.211914062 c 0
 550.986895532 470.811765071 500.592699393 361.153382704 460.164912664 279.048082912 c 1
 485.691259508 259.738740183 510.626055078 240.282828907 534 220.35546875 c 0
 534.70703125 219.6484375 568.594726562 185.649414062 569.35546875 185 c 1
 568.594726562 185.649414062 534.70703125 150.3515625 534 149.64453125 c 0
 502.816874485 176.229576052 468.855721078 201.975528311 434.418091883 227.653799867 c 1
 422.057096864 203.377461837 413.751953125 187.61328125 413.751953125 187.61328125 c 2
 394.333007812 155.3671875 l 1
 366.630859375 147.603515625 -9.30078125 296.48828125 -9.30078125 296.48828125 c 1
199.657226562 631.55859375 m 1
 199.657226562 631.55859375 59.9873046875 310.973632812 59.9873046875 310.973632812 c 1
 136.375 286.686523438 l 1
 235.603515625 246.463867188 327.936523438 220.775390625 345.508789062 218.596679688 c 1
 352.497987909 234.074598195 361.010898288 253.891570615 370.153487472 275.680187018 c 1
 354.493987016 287.556767993 339.035454201 299.520067738 324 311.64453125 c 0
 323.29296875 312.3515625 289.422851562 346.372070312 288.64453125 347 c 1
 289.422851562 346.372070312 323.29296875 381.6484375 324 382.35546875 c 0
 346.139847339 364.502082505 369.197049216 346.998145055 392.462445636 329.605967053 c 1
 423.043641854 404.384792001 452.875 480.278320312 452.875 480.278320312 c 2
 199.657226562 631.55859375 l 1
EndSplineSet
Validated: 524321
EndChar

StartChar: S
Encoding: 83 83 28
Width: 680
VWidth: 0
Flags: HW
LayerCount: 2
Fore
SplineSet
638.799804688 370.400390625 m 0
 419.919921875 428 l 0
 160.719726562 490.400390625 l 1
 424.959960938 708.938476562 l 0
 424.828125 707.995117188 476.932617188 759.60546875 477.51953125 760.16015625 c 1
 476.932617188 759.60546875 425.604492188 777.25 424.959960938 776.821289062 c 0
 293.200195312 689.120117188 188.154296875 606.327148438 79.3603515625 498.080078125 c 1
 79.3603515625 498.080078125 49.83984375 466.400390625 51.744140625 454.879882812 c 0
 54.84375 436.126953125 77.2001953125 420.938476562 77.2001953125 420.938476562 c 1
 77.2001953125 420.936523438 409.120117188 363.6796875 409.120117188 363.6796875 c 0
 409.120117188 363.6796875 464.897460938 353.731445312 477.264648438 349.504882812 c 1
 255.759765625 216.799804688 l 1
 175.120117188 171.6796875 l 2
 174.506835938 171.379882812 84.361328125 119.19140625 83.6796875 118.879882812 c 1
 84.361328125 119.19140625 48.8203125 27.54296875 49.1201171875 27.6796875 c 2
 265.119140625 141.579101562 l 1
 638.799804688 370.400390625 l 0
EndSplineSet
Validated: 524329
EndChar

StartChar: U
Encoding: 85 85 29
Width: 493
VWidth: 0
Flags: HW
LayerCount: 2
Fore
SplineSet
37 761.35546875 m 1
 37 760.35546875 71.6484375 726.70703125 72.35546875 726 c 2
 72.35546875 720 l 1
 126.8359375 584.506835938 143.919921875 444.9375 205.421875 309 c 0
 211.966796875 294.533203125 268.125 217.954101562 293.7734375 163.825195312 c 1
 287.814453125 191.224609375 346 390 346 390 c 25
 346 390 382.2265625 555.908203125 409.64453125 693 c 2
 415.64453125 723 l 2
 416.3515625 723.70703125 450.803710938 757.375 451 758.35546875 c 1
 450.803710938 757.375 485.6484375 723.70703125 486.35546875 723 c 2
 480.35546875 693 l 2
 452.9375 555.908203125 457.91796875 402.120117188 409 270 c 0
 387.555664062 212.084960938 344.458007812 158.912109375 336.35546875 99 c 1
 336.315429688 99.0458984375 332.010742188 101.344726562 326.055664062 106.565429688 c 1
 330.051757812 101.731445312 333.549804688 99 336.35546875 99 c 2
 301 63.64453125 l 2
 300 63.64453125 266.64453125 99 265.64453125 99 c 0
 242.87109375 99 145.6171875 284.89453125 134.7109375 309 c 0
 73.2099609375 444.9375 56.125 584.506835938 1.64453125 720 c 1
 1.64453125 726 l 2
 2.3515625 726.70703125 37 760.35546875 37 761.35546875 c 1
336.35546875 99 m 1
 336.35546875 99 l 1
 336.35546875 99 l 1
EndSplineSet
Validated: 524325
EndChar

StartChar: Edieresis
Encoding: 203 203 30
Width: 676
VWidth: 0
Flags: HW
LayerCount: 2
Fore
SplineSet
504 778 m 1
 503.42578125 777.181640625 518.979916959 724.195983392 518 724 c 0
 326 702 l 0
 326 702 272 684 216.35546875 615 c 0
 186.957085105 578.545591527 180 550 162.35546875 507 c 24
 141 456 125.200195312 418.163085938 115.080078125 372.979492188 c 1
 388 380.35546875 l 1
 397 380.35546875 l 2
 397.70703125 379.6484375 431.35546875 345 432.35546875 345 c 1
 431.35546875 345 397.70703125 310.3515625 397 309.64453125 c 2
 388 309.64453125 l 1
 105.026367188 301.997070312 l 1
 100.966796875 262.022460938 99.2978515625 220.908203125 105.35546875 183 c 0
 106.9453125 161.08203125 117.318359375 126.86328125 117.318359375 126.86328125 c 2
 119.513671875 125.450195312 152.189453125 101.059570312 157 95.35546875 c 0
 164.9765625 85.89453125 218.842285908 83.1008378572 232 83.35546875 c 2
 472 88 l 1
 541 85 l 2
 541.70703125 84.29296875 575.356445312 49.6875 576.35546875 49.64453125 c 1
 575.356445312 49.6875 541.70703125 14.99609375 541 14.2890625 c 2
 472 17.2890625 l 1
 232 12.64453125 l 1
 157 24.64453125 l 1
 151.23046875 31.486328125 122.287109375 52.9541015625 115 57.6455078125 c 0
 95.1279296875 76.7587890625 92.94921875 79.7421875 90.16015625 81.5380859375 c 0
 89.5908203125 82.359375 55.375 116.071289062 54.8046875 116.893554688 c 0
 42.07421875 135.252929688 36.453125 158.079101562 34.64453125 183 c 0
 27.6845703125 226.555664062 30.9248046875 274.345703125 36.2724609375 319.774414062 c 1
 28.0458984375 328.111328125 29.4775390625 336.012695312 29 336 c 5
 29.5732421875 336.015625 31.5283203125 347.408203125 41.2060546875 357.256835938 c 1
 50.1171875 407.459960938 69 450 91.64453125 507 c 24
 109 551 122.635893738 574.203218321 145.64453125 615 c 0
 162 644 185 676 218 706 c 24
 249 734 271.777394326 742.412990736 303 759 c 0
 367 793 503.42578125 777.181640625 504 778 c 1
EndSplineSet
Validated: 524321
EndChar

StartChar: five
Encoding: 53 53 31
Width: 532
VWidth: 0
Flags: HW
LayerCount: 2
Fore
SplineSet
209.049804688 97.4248046875 m 0
 67.224609375 -2.3525390625 l 2
 67.224609375 -2.3525390625 77.896484375 70.0458984375 77.2998046875 69.4501953125 c 1
 325.786132812 293.7734375 l 2
 338.391601562 303.661132812 319.1015625 287.91015625 347 310.967773438 c 1
 337.1328125 311.270507812 67.224609375 316.231445312 67.224609375 316.231445312 c 0
 39.82421875 349.200195312 l 1
 42.1953125 756.602539062 l 1
 99 796.799804688 l 1
 482.625 809.5859375 l 2
 483.1484375 809.602539062 509.25 776.604492188 510.025390625 776.616210938 c 1
 509.25 776.604492188 483.172851562 744.306640625 482.625 743.647460938 c 2
 99 724.065429688 l 1
 99 380.905273438 l 1
 99.7744140625 380.872070312 126.90625 379.252929688 127.674804688 379.372070312 c 0
 245.474609375 376.2421875 l 0
 330.724609375 369.71484375 l 0
 436.900390625 365.052734375 l 0
 436.237304688 364.569335938 459.375 324.955078125 459.375 324.022460938 c 0
 459.375 323.08984375 442.685546875 302.8359375 442.049804688 302.301757812 c 0
 441.4140625 301.767578125 209.685546875 97.9599609375 209.049804688 97.4248046875 c 0
EndSplineSet
Validated: 524321
EndChar

StartChar: seven
Encoding: 55 55 32
Width: 613
VWidth: 0
Flags: HW
LayerCount: 2
Fore
SplineSet
8.93359375 705 m 1
 9.9248046875 705.13671875 43.58203125 739.6484375 44.2890625 740.35546875 c 0
 163.696289062 756.877929688 303.877929688 753.294921875 431.2890625 755.35546875 c 0
 431.2890625 755.35546875 554.2890625 776.736328125 554.2890625 743.35546875 c 0
 554.2890625 742.35546875 589.64453125 709 589.64453125 708 c 0
 589.64453125 528.97265625 325 216 325 216 c 1
 253.64453125 117 l 2
 253.155273438 116.321289062 218.708007812 82.552734375 218.2890625 81.64453125 c 1
 218.708007812 82.552734375 183.640625 116.29296875 182.93359375 117 c 2
 200.93359375 156 l 1
 286.583007812 304.405273438 445 474 519.220703125 690.90234375 c 1
 519.220703125 690.90234375 525.946289062 694.676757812 431.2890625 684.64453125 c 1
 303.877929688 682.584960938 163.696289062 686.16796875 44.2890625 669.64453125 c 0
 43.58203125 670.3515625 9.9248046875 705.13671875 8.93359375 705 c 1
EndSplineSet
Validated: 524321
EndChar

StartChar: eight
Encoding: 56 56 33
Width: 577
VWidth: 0
Flags: HW
LayerCount: 2
Fore
SplineSet
195.99609375 491.334960938 m 1
 195.99609375 490.05078125 230.65234375 456.703125 231.35546875 456 c 0
 206.055664062 400.103515625 160.112304688 343.208007812 135.35546875 291 c 0
 134.217773438 288.6015625 133.733398438 286.178710938 133.733398438 283.739257812 c 0
 133.733398438 269.625976562 149.963867188 254.954101562 149.963867188 241.130859375 c 0
 149.963867188 239.668945312 149.782226562 238.216796875 149.380859375 236.776367188 c 1
 197.934570312 205.482421875 257.233398438 170.35546875 270.999023438 170.35546875 c 0
 274.694335938 170.35546875 280.922851562 174.290039062 289.0390625 181.224609375 c 0
 363.869140625 263.204101562 449.115234375 393.801757812 449.115234375 393.801757812 c 1
 393.604492188 408.747070312 392.118164062 408.458984375 358 417.64453125 c 0
 357.295898438 418.348632812 323.859375 452.48828125 322.657226562 452.999023438 c 1
 323.859375 452.999023438 357.295898438 487.651367188 358 488.35546875 c 2
 514 446.35546875 l 1
 549.35546875 411 l 1
 530.61328125 389.624023438 419.779296875 245.0625 353.171875 174.1171875 c 0
 352.487304688 173.387695312 318.500976562 139.491210938 317.81640625 138.76171875 c 0
 295.614257812 115.11328125 278.325195312 99.64453125 270.999023438 99.64453125 c 0
 256.484375 99.64453125 191.34765625 138.698242188 141.560546875 171.1328125 c 0
 140.72265625 171.678710938 107.04296875 205.942382812 106.205078125 206.48828125 c 2
 106.205078125 206.48828125 97.56640625 199.1484375 90.6103515625 199.1484375 c 0
 85.9228515625 199.1484375 82 202.481445312 82 213.64453125 c 0
 82 214.64453125 46.64453125 248 46.64453125 249 c 0
 46.64453125 263.772460938 58.23046875 277.475585938 64.64453125 291 c 0
 89.40234375 343.208007812 135.344726562 400.103515625 160.64453125 456 c 0
 161.3515625 456.70703125 195.587890625 490.444335938 195.99609375 491.334960938 c 1
293.583984375 185.240234375 m 2
 300.630859375 191.651367188 308.8203125 199.890625 317.81640625 209.47265625 c 2
 293.583984375 185.240234375 l 2
292 741.645507812 m 0
 282.83984375 737.375 272.130859375 730.838867188 261.234375 723.447265625 c 1
 331.53125 678.307617188 408.838867188 642.252929688 481 611.35546875 c 1
 516.35546875 576 l 2
 516.35546875 575 501.38671875 551.9375 500.659179688 551.250976562 c 0
 499.931640625 550.565429688 466.03125 516.58203125 465.303710938 515.896484375 c 0
 416.01953125 469.424804688 266.310546875 402.64453125 244 402.64453125 c 0
 214.729492188 402.64453125 130.248046875 487.926757812 92.27734375 525.740234375 c 0
 64.7958984375 553.12890625 43.64453125 578.041015625 43.64453125 585 c 1
 75.0078125 618.411132812 106.274414062 656.1640625 140.69140625 690.6875 c 0
 141.22265625 691.219726562 160.530273438 710.526367188 170.387695312 720.383789062 c 1
 155.78515625 733.737304688 131.854492188 758.068359375 115.67578125 773.990234375 c 1
 117.021484375 773.990234375 150.299804688 808.655273438 151 809.35546875 c 0
 169.650390625 791.291992188 189.709960938 774.376953125 210.787109375 758.484375 c 1
 235.612304688 779.8046875 262.3515625 798.536132812 292 812.35546875 c 0
 292.703125 811.65234375 326.045898438 776.997070312 327.3359375 776.997070312 c 1
 326.44921875 776.578125 292.70703125 742.352539062 292 741.645507812 c 0
161.014648438 527.713867188 m 1
 162.98828125 525.740234375 l 1
 161.014648438 527.713867188 l 1
145.139648438 544.133789062 m 0
 183.296875 508.170898438 226.999023438 473.35546875 244 473.35546875 c 0
 289.205078125 473.35546875 410.086914062 568.248046875 410.086914062 568.248046875 c 1
 322.609375 610.069335938 264.337890625 643.528320312 211.141601562 685.624023438 c 1
 201.208007812 677.51171875 194.774414062 671.93359375 194.774414062 671.93359375 c 1
 136.756835938 608.30859375 145.359375 618.028320312 114.35546875 585 c 0
 114.35546875 579.6484375 126.86328125 563.680664062 145.139648438 544.133789062 c 0
EndSplineSet
Validated: 524293
EndChar

StartChar: nine
Encoding: 57 57 34
Width: 565
VWidth: 0
Flags: HW
LayerCount: 2
Fore
SplineSet
240.783203125 27.267578125 m 5
 241.607421875 27.4453125 276.37890625 98.6728515625 275.567382812 98.900390625 c 4
 323.0546875 204.571289062 l 4
 323.0546875 204.571289062 415.284179688 404.323242188 448.46484375 506.880859375 c 5
 447.53515625 505.397460938 432.71875 502.55859375 432.647460938 502.448242188 c 6
 56.26953125 409.38671875 l 5
 17.025390625 431.361328125 l 6
 17.025390625 431.361328125 19.95703125 459.455078125 19.193359375 461.140625 c 4
 37.73046875 616.877929688 l 4
 37.73046875 616.877929688 43.015625 659.711914062 46.44140625 681.455078125 c 4
 46.5732421875 682.288085938 54.994140625 716.352539062 55.0947265625 717.188476562 c 4
 64.8056640625 742.569335938 l 4
 64.3330078125 741.873046875 82.6904296875 784.971679688 83.4189453125 785.393554688 c 4
 203.16796875 757.892578125 l 4
 442.020507812 701.887695312 l 4
 442.419921875 701.146484375 480.30859375 684.322265625 480.487304688 683.498046875 c 4
 515.41796875 665.51171875 l 4
 516.256835938 665.4296875 550.490234375 643.475585938 550.837890625 642.70703125 c 4
 407 215 l 4
 337.290039062 76.6240234375 l 6
 314.485351562 41.2041015625 l 5
 309.545898438 40.1337890625 l 6
 308.963867188 40.0078125 241.607421875 27.4453125 240.783203125 27.267578125 c 5
467.73828125 571.255859375 m 5
 475.859375 622.29296875 l 5
 217.6875 686.90234375 l 4
 120.786132812 705.12109375 l 5
 103.427734375 629.387695312 l 5
 103.427734375 629.387695312 86.1708984375 517.069335938 80.138671875 476.48046875 c 5
 434.272460938 562.586914062 l 6
 434.649414062 562.678710938 467.73828125 571.255859375 467.73828125 571.255859375 c 5
EndSplineSet
Validated: 524321
EndChar

StartChar: a
Encoding: 97 97 35
Width: 646
VWidth: 0
Flags: HW
LayerCount: 2
Fore
SplineSet
62.869140625 76.7763671875 m 1
 63.4013671875 77.8193359375 17.1337890625 116.274414062 16.2001953125 117.080078125 c 0
 55.3154296875 193.716796875 85.7197265625 275.723632812 113.663085938 358.924804688 c 1
 36.4697265625 359.495117188 l 2
 35.53515625 360.30078125 -8.8798828125 399.799804688 -10.2001953125 399.799804688 c 1
 -8.8798828125 399.799804688 35.53515625 439.299804688 36.4697265625 440.10546875 c 2
 140.038085938 439.340820312 l 1
 177.62109375 555.594726562 214.327148438 671.565429688 267 776 c 1
 313.668945312 816.305664062 l 2
 314.989257812 816.305664062 326.95703125 805.770507812 327.653320312 804.801757812 c 0
 328.348632812 803.833007812 373.625976562 765.46484375 374.322265625 764.497070312 c 0
 403.948705223 723.265530387 453.359064276 577.812255386 497.658447752 436.353417064 c 1
 583 435.610351562 l 2
 583.932617188 434.8046875 628.348632812 395.314453125 629.668945312 395.305664062 c 1
 628.348632812 395.314453125 583.932617188 355.806640625 583 355 c 2
 522.604328831 355.519980423 l 1
 555.541777898 247.403756474 582.194536028 155.067775025 590.018554688 133.040039062 c 2
 632.258789062 30.4404296875 l 2
 631.325195312 29.6337890625 585.147460938 -8.791015625 585.588867188 -9.865234375 c 1
 585.147460938 -8.791015625 539.853515625 29.6337890625 538.919921875 30.4404296875 c 2
 496.6796875 133.040039062 l 2
 488.701190754 155.503474861 462.062277839 247.945702111 429.045425373 356.325481832 c 1
 207.66796875 358.231445312 l 1
 176.6640625 270.181640625 142.918945312 182.48046875 109.538085938 117.080078125 c 0
 108.60546875 116.274414062 63.4013671875 77.8193359375 62.869140625 76.7763671875 c 1
404.089632721 437.168117015 m 1
 375.888808199 527.165683267 345.527997332 618.966707989 319.223632812 685.219726562 c 1
 300.41015625 638.686523438 270.583007812 543.369140625 235.307617188 438.637695312 c 1
 404.089632721 437.168117015 l 1
EndSplineSet
Validated: 524321
EndChar

StartChar: b
Encoding: 98 98 36
Width: 424
VWidth: 0
Flags: HW
LayerCount: 2
Fore
SplineSet
82.83984375 347.018554688 m 1
 94.8720703125 359.64453125 l 2
 94.873046875 359.119140625 137.809570312 395.64453125 137.809570312 395.64453125 c 1
 137.809570312 395.64453125 226.744140625 454.58203125 270.629882812 489 c 2
 302.658203125 514.118164062 l 1
 256.317382812 534.93359375 l 1
 118.91796875 603.93359375 l 1
 77.2392578125 641.671875 l 1
 79.9873046875 587.2890625 l 1
 79.8974609375 504.646484375 80.73046875 429.404296875 82.83984375 347.018554688 c 1
89.923828125 10.669921875 m 1
 148.6875 27 l 1
 170.131835938 45.9208984375 329.59765625 142.64453125 329.59765625 142.64453125 c 2
 330.09375 143.142578125 358.342773438 160.4921875 358.84375 160.974609375 c 1
 330.96875 174.4453125 281.673828125 198.265625 279.217773438 199.2890625 c 0
 222.073242188 223.119140625 110.90234375 286.2890625 110.90234375 286.2890625 c 1
 95.4453125 299.64453125 l 1
 83.8857421875 312.48046875 l 1
 85.189453125 275.482421875 87.1103515625 238.532226562 89.923828125 201.643554688 c 1
 89.923828125 108.64453125 l 1
 89.923828125 10.669921875 l 1
56.88671875 -22.7119140625 m 1
 52.9560546875 -15.9755859375 49.60546875 -10.2861328125 49.44140625 -10 c 2
 49.44140625 -4 l 2
 49.44140625 15.138671875 49.44140625 89.333984375 49.44140625 108.64453125 c 2
 49.44140625 201.643554688 l 1
 39.494140625 332.083984375 40.7109375 463.306640625 40.853515625 594.64453125 c 1
 35.8359375 627.297851562 35.7197265625 649.265625 39.3759765625 662.23828125 c 0
 39.62890625 663.135742188 59.044921875 697.561523438 59.6171875 697.59375 c 2
 70.2548828125 717.64453125 l 2
 70.8173828125 717.458984375 80.2119140625 711.426757812 80.771484375 711.21484375 c 2
 119.490234375 682.64453125 l 2
 120.634765625 681.290039062 218.3984375 619.859375 255.172851562 611.999023438 c 1
 354.787109375 555.000976562 l 1
 375.028320312 519.645507812 l 1
 354.787109375 484.290039062 l 1
 270.629882812 418.2890625 l 2
 234.709960938 391.569335938 160.13671875 344.864257812 157.153320312 342.11328125 c 1
 203.389648438 316.357421875 235.866210938 288.078125 279.217773438 270 c 0
 281.62890625 268.994140625 371.962890625 225.521484375 371.962890625 225 c 0
 371.9609375 224 396.852539062 188.73828125 396.8515625 187.73828125 c 0
 396.8515625 186.73828125 391.758789062 162.459960938 391.427734375 161.64453125 c 0
 391.096679688 160.828125 369.500976562 126.357421875 369.099609375 125.64453125 c 2
 348.490234375 99.64453125 l 2
 348.013671875 99.08984375 330.026367188 78.4921875 329.524414062 78.0107421875 c 0
 270.958984375 21.751953125 170.131835938 -24.7900390625 148.6875 -43.7099609375 c 1
 73.1171875 -64.7109375 l 2
 72.712890625 -64.00390625 53.44140625 -29.1982421875 52.876953125 -29.35546875 c 1
 53.033203125 -29.3115234375 54.640625 -26.607421875 56.88671875 -22.7119140625 c 1
EndSplineSet
Validated: 524321
EndChar

StartChar: V
Encoding: 86 86 37
Width: 460
VWidth: 0
Flags: HW
LayerCount: 2
Fore
SplineSet
198 28 m 0
 441 651 l 1
 438.35546875 675 l 2
 438.305664062 675.450195312 402.50390625 709.487304688 403 710.35546875 c 1
 402.50390625 709.487304688 368.3515625 675.70703125 367.64453125 675 c 2
 355.64453125 654 l 1
 210 216 l 1
 210 216 124 631 66.35546875 681 c 0
 65.599609375 681.655273438 31.296875 715.400390625 31 716.35546875 c 1
 31.296875 715.400390625 -3.6484375 681.708007812 -4.35546875 681 c 2
 172.64453125 111 l 1
 198 28 l 0
EndSplineSet
Validated: 524329
EndChar

StartChar: W
Encoding: 87 87 38
Width: 568
VWidth: 0
Flags: HW
LayerCount: 2
Fore
SplineSet
264 462 m 1
 299.834960938 334.864257812 363.719726562 178 363.719726562 178 c 1
 477.322265625 616 l 1
 486.682617188 663 l 2
 487.234375 663.70703125 513.873046875 697.487304688 514.259765625 698.35546875 c 1
 513.873046875 697.487304688 541.798828125 663.450195312 541.836914062 663 c 2
 543.900390625 639 l 1
 386 14 l 1
 334.583007812 99 l 1
 263.0859375 330.48046875 l 1
 171.059570312 28 l 5
 118.90625 246.25390625 65.78125 463.263671875 13.22265625 681 c 0
 13.7744140625 681.708007812 41.03125 715.400390625 40.7998046875 716.35546875 c 1
 41.03125 715.400390625 67.7880859375 681.655273438 68.376953125 681 c 0
 113.33984375 631 180.419921875 216 180.419921875 216 c 1
 264 462 l 1
EndSplineSet
Validated: 524321
EndChar

StartChar: X
Encoding: 88 88 39
Width: 613
VWidth: 0
Flags: HW
LayerCount: 2
Fore
SplineSet
19.1728515625 662.12890625 m 0
 30.1376953125 670.205078125 46.0517578125 667.791015625 54.12890625 656.827148438 c 0
 122.23046875 564.375 193.16796875 473.962890625 266.641601562 385.469726562 c 1
 367.056640625 482.33984375 460.361328125 581.518554688 548.767578125 687.971679688 c 0
 557.467773438 698.448242188 573.49609375 699.932617188 583.971679688 691.232421875 c 0
 594.448242188 682.532226562 595.932617188 666.50390625 587.232421875 656.028320312 c 0
 498.997070312 549.78125 403.384765625 442.633789062 302.084960938 343.16015625 c 1
 349.8984375 286.587890625 398.7421875 230.803710938 448.537109375 175.7734375 c 0
 448.861328125 175.416015625 449.297851562 174.896484375 449.521484375 174.6171875 c 2
 497.521484375 114.6171875 l 2
 506.028320312 103.983398438 504.250976562 87.9853515625 493.6171875 79.478515625 c 0
 482.983398438 70.9716796875 466.985351562 72.7490234375 458.478515625 83.3828125 c 2
 410.952148438 142.790039062 l 1
 361.715820312 197.21484375 313.389648438 252.38671875 266.05078125 308.337890625 c 1
 205.297851562 250.5859375 139.735351562 198.563476562 78.3740234375 145.991210938 c 0
 67.458984375 136.639648438 55.6298828125 125.533203125 41.1328125 135.19921875 c 0
 29.8017578125 142.752929688 26.64453125 158.537109375 34.19921875 169.8671875 c 0
 37.9990234375 175.56640625 40.9892578125 180.6484375 46.2392578125 185.177734375 c 0
 110.34375 240.47265625 171.583007812 295.389648438 230.37890625 350.874023438 c 1
 155.53125 440.920898438 83.2568359375 532.977539062 13.87109375 627.172851562 c 0
 5.794921875 638.137695312 8.208984375 654.051757812 19.1728515625 662.12890625 c 0
EndSplineSet
Validated: 524321
EndChar

StartChar: zero
Encoding: 48 48 40
Width: 610
VWidth: 0
Flags: HW
LayerCount: 2
Fore
SplineSet
250 745 m 0
 263.618164062 745 275 733.618164062 275 720 c 2
 275 714 l 2
 275 709.094726562 274.368164062 703.46484375 273.171875 697.184570312 c 1
 410.13671875 627.966796875 596 541.5234375 596 474 c 0
 596 428.5625 455.931640625 74 403 74 c 0
 364.456054688 74 9 108.6875 9 168 c 0
 9 342.467773438 149.774414062 534.377929688 212.64453125 672.462890625 c 0
 210.197265625 673.880859375 207.994140625 675.185546875 206.055664062 676.369140625 c 2
 133.532226562 702.477539062 l 2
 103.314453125 713.356445312 120.083984375 760.459960938 150.467773438 749.522460938 c 0
 155.015625 747.884765625 222.73828125 723.229492188 225.435546875 721.797851562 c 1
 233.8515625 756.473632812 236.559570312 745 250 745 c 0
258.00390625 647.557617188 m 1
 210.04296875 521.331054688 75.9580078125 293.471679688 58.0322265625 183.227539062 c 1
 103.40625 167.623046875 376.321289062 125.942382812 392 124.264648438 c 1
 425.8203125 176.9296875 541.515625 455.6796875 546.223632812 471.258789062 c 1
 502.241210938 518.532226562 346.16015625 600.231445312 258.00390625 647.557617188 c 1
EndSplineSet
Validated: 524321
EndChar

StartChar: colon
Encoding: 58 58 41
Width: 211
VWidth: 0
Flags: HW
LayerCount: 2
Fore
SplineSet
100 234 m 25
 166 150 l 25
 79 93 l 25
 31 144 l 25
 100 234 l 25
91 483 m 25
 157 399 l 25
 70 342 l 25
 22 393 l 25
 91 483 l 25
EndSplineSet
Validated: 1
EndChar

StartChar: semicolon
Encoding: 59 59 42
Width: 173
VWidth: 0
Flags: HW
LayerCount: 2
Fore
SplineSet
98 234 m 25
 164 150 l 1
 -11 8 l 17
 29 144 l 1
 98 234 l 25
89 483 m 25
 155 399 l 25
 68 342 l 25
 20 393 l 25
 89 483 l 25
EndSplineSet
Validated: 1
EndChar

StartChar: plus
Encoding: 43 43 43
Width: 624
VWidth: 0
Flags: HW
LayerCount: 2
Fore
SplineSet
-23 264 m 1
 58 324 l 1
 58 324 152.731445312 332.534179688 245.23828125 340.499023438 c 1
 238 477 l 1
 295 552 l 1
 343 486 l 1
 357.165039062 349.856445312 l 1
 388.705078125 352.364257812 527.6953125 350 534 350 c 0
 561 350 627 290 630 290 c 0
 633 290 574 240 574 240 c 1
 574 240 473.666992188 232.983398438 370.043945312 226.077148438 c 1
 384 80 l 2
 384 83 325 0 325 0 c 1
 259 81 l 1
 251.71484375 218.383789062 l 1
 190.42578125 214.541992188 145 212.0234375 145 213 c 0
 145 216 43 244 -23 264 c 1
EndSplineSet
Validated: 524325
EndChar

StartChar: slash
Encoding: 47 47 44
Width: 880
VWidth: 0
Flags: HW
LayerCount: 2
Fore
SplineSet
682 768 m 1
 856 753 l 25
 856 753 175 45 175 39 c 0
 175 33 28 30 28 33 c 0
 28 36 16 135 16 135 c 25
 682 768 l 1
EndSplineSet
Validated: 33
EndChar

StartChar: backslash
Encoding: 92 92 45
Width: 841
VWidth: 0
Flags: HW
LayerCount: 2
Fore
SplineSet
190.509765625 768 m 1
 813.219726562 135 l 25
 813.219726562 135 802 36 802 33 c 0
 802 30 664.5546875 33 664.5546875 39 c 0
 664.5546875 45 27.8203125 753 27.8203125 753 c 25
 190.509765625 768 l 1
EndSplineSet
Validated: 524321
EndChar

StartChar: exclam
Encoding: 33 33 46
Width: 280
VWidth: 0
Flags: HW
LayerCount: 2
Fore
SplineSet
125.897460938 -18 m 1
 28.2626953125 72 l 25
 100.427734375 192 l 25
 187.450195312 138 l 25
 125.897460938 -18 l 1
125.897460938 810 m 1
 223.532226562 870 l 25
 219.287109375 321 l 1
 219.287109375 321 123.775390625 270 121.65234375 270 c 0
 119.530273438 270 81.3251953125 321 81.3251953125 321 c 25
 125.897460938 810 l 1
EndSplineSet
Validated: 524289
EndChar

StartChar: quotedbl
Encoding: 34 34 47
Width: 496
VWidth: 0
Flags: HW
LayerCount: 2
Fore
SplineSet
238 612 m 1
 238 612 253 678 259 681 c 0
 265 684 403 792 403 792 c 25
 517 789 l 25
 265 444 l 25
 265 444 223 477 223 483 c 0
 223 489 238 612 238 612 c 1
169 798 m 25
 244 774 l 25
 244 774 58 516 55 516 c 0
 52 516 -20 564 -20 564 c 25
 -20 564 49 684 52 684 c 0
 55 684 123 754 169 798 c 25
EndSplineSet
Validated: 1
EndChar

StartChar: numbersign
Encoding: 35 35 48
Width: 871
VWidth: 0
Flags: HW
LayerCount: 2
Fore
SplineSet
403 772 m 0
 416.618164062 772 428 760.618164062 428 747 c 2
 428 738 l 2
 428 683.865234375 415.508789062 625.211914062 395.997070312 565 c 1
 521.028320312 565 l 1
 536.842773438 614.78125 554.083984375 663.657226562 574.25 710.079101562 c 1
 579.74609375 732.063476562 l 2
 587.53515625 763.219726562 636.0859375 751.264648438 628.25390625 719.936523438 c 2
 622.25390625 695.936523438 l 2
 622.004882812 694.943359375 621.4453125 693.219726562 620.91015625 691.993164062 c 0
 603.359375 651.814453125 588.08203125 609.094726562 573.913085938 565 c 1
 589 565 l 2
 589.48828125 565 590.173828125 564.974609375 590.53515625 564.953125 c 2
 785.53515625 552.953125 l 2
 817.590820312 550.98046875 814.696289062 501.063476562 782.46484375 503.046875 c 2
 588.231445312 515 l 1
 558.41796875 515 l 1
 542.009765625 460.358398438 526.596679688 404.329101562 510.088867188 349 c 1
 631 349 l 2
 631.993164062 349 633.359375 348.899414062 634.100585938 348.806640625 c 2
 706.100585938 339.806640625 l 2
 737.96875 335.823242188 731.942382812 286.1875 699.899414062 290.193359375 c 2
 629.443359375 299 l 1
 494.73828125 299 l 1
 471.323242188 225.205078125 444.766601562 153.836914062 409.9453125 90.0244140625 c 0
 394.561523438 61.8330078125 350.5859375 85.62890625 366.0546875 113.975585938 c 0
 396.276367188 169.356445312 420.124023438 232.401367188 441.581054688 299 c 1
 436 299 l 2
 435.565429688 299 434.74609375 299.024414062 434.163085938 299.067382812 c 0
 386.065429688 302.612304688 336.669921875 305.36328125 287.076171875 309.603515625 c 1
 250.501953125 234.056640625 215.065429688 162.834960938 192.416992188 102.24609375 c 0
 185.9765625 85.0146484375 163.336914062 81.3076171875 151.322265625 93.322265625 c 0
 141.68359375 102.9609375 135.954101562 119.30859375 148.322265625 131.677734375 c 0
 156.64453125 140 151.814453125 136.66796875 151.814453125 136.66796875 c 1
 171.322265625 183.0234375 202.135742188 245.66796875 234.815429688 314.720703125 c 1
 169.065429688 322.103515625 103.646484375 333.513671875 41.1220703125 354.2734375 c 0
 10.642578125 364.393554688 26.23046875 411.90234375 56.8779296875 401.7265625 c 0
 119.810546875 380.831054688 187.697265625 369.9140625 257.325195312 362.786132812 c 1
 280.3671875 412.620117188 303.270507812 464.475585938 322.833007812 515 c 1
 151 515 l 2
 137.381835938 515 126 526.381835938 126 540 c 0
 126 553.618164062 137.381835938 565 151 565 c 2
 341.177734375 565 l 1
 363.348632812 629.333007812 378 689.48828125 378 738 c 2
 378 747 l 2
 378 760.618164062 389.381835938 772 403 772 c 0
505.641601562 515 m 1
 378.409179688 515 l 1
 358.6328125 462.591796875 334.764648438 409.631835938 310.303710938 358.014648438 c 1
 352.404296875 354.654296875 394.83984375 352.092773438 436.918945312 349 c 1
 457.122070312 349 l 1
 473.515625 403.413085938 489.01171875 459.4453125 505.641601562 515 c 1
EndSplineSet
Validated: 524325
EndChar

StartChar: K
Encoding: 75 75 49
Width: 568
VWidth: 0
Flags: HW
LayerCount: 2
Fore
SplineSet
53.48828125 446.341796875 m 1
 52.64453125 324 l 1
 40.64453125 66 l 2
 41.3515625 65.29296875 76.046875 31.6435546875 76 30.64453125 c 1
 76.046875 31.6435546875 124.29296875 101.29296875 125 102 c 2
 123.35546875 324 l 1
 123.90625 403.802734375 l 1
 249.174804688 316.0546875 475 99 475 99 c 1
 508 78.64453125 l 2
 508.127929688 78.5654296875 542.607421875 114.665039062 543.354492188 114 c 1
 542.607421875 114.665039062 514.70703125 143.29296875 514 144 c 2
 481 173.35546875 l 1
 481 173.35546875 289.705078125 352.833984375 171 444 c 1
 234.530273438 498.470703125 436.46484375 683.368164062 501.35546875 738 c 0
 498.354492188 744 l 2
 498.354492188 744 460.584960938 781.631835938 463 779.35546875 c 1
 463.447265625 778.4609375 337 660 337 660 c 2
 337 660 197.689453125 548.758789062 124.426757812 479.338867188 c 1
 126.35546875 759 l 2
 125.6484375 759.70703125 91 793.35546875 91 794.35546875 c 1
 91 793.35546875 56.3515625 759.70703125 55.64453125 759 c 2
 53.974609375 516.823242188 l 1
 35.703125 525.470703125 19.7626953125 530.35546875 7 530.35546875 c 2
 1 530.354492188 l 2
 0.29296875 530.354492188 54.48828125 446.341796875 53.48828125 446.341796875 c 1
106 390.64453125 m 2
 109.736328125 394.380859375 l 2
 109.640625 394.286132812 109.544921875 394.19140625 109.44921875 394.095703125 c 0
 107.42578125 392.073242188 106.131835938 390.77734375 106 390.64453125 c 2
EndSplineSet
Validated: 524325
EndChar

StartChar: Y
Encoding: 89 89 50
Width: 646
VWidth: 0
Flags: HW
LayerCount: 2
Fore
SplineSet
324 504.64453125 m 0
 232 562.64453125 l 1
 48 684.645507812 l 0
 47.646484375 685.581054688 -3.05859375 717.662109375 -4 718 c 1
 -3.05859375 717.662109375 48 756.35546875 48 755.35546875 c 0
 232 633.35546875 l 1
 324 575.354492188 l 2
 324.15625 575.198242188 325.93359375 573.40625 328.615234375 570.704101562 c 1
 328.159179688 602.434570312 326.611328125 632.373046875 322.64453125 658 c 0
 323.3515625 658.70703125 358.153320312 692.3671875 358 693.35546875 c 1
 358.153320312 692.3671875 392.6484375 658.70703125 393.35546875 658 c 0
 396.29296875 639.021484375 397.904296875 617.6796875 398.727539062 594.99609375 c 1
 486 665 l 1
 574.64453125 756 l 0
 575.125 756.876953125 609.346679688 790.59765625 610 791.35546875 c 1
 609.346679688 790.59765625 644.6484375 756.70703125 645.35546875 756 c 0
 617.510742188 723.71484375 589.565429688 689.907226562 559.380859375 658.401367188 c 0
 558.689453125 657.6796875 417.935546875 541.427734375 417.243164062 540.706054688 c 0
 409.71484375 532.734375 404.282226562 529.625 399.3984375 526.8671875 c 1
 399.012695312 477.920898438 395 384 395 384 c 0
 395 384 388.780273438 218.421875 383.35546875 134 c 1
 361.35546875 58 l 2
 360.6484375 57.29296875 326.278320312 23.60546875 326 22.64453125 c 1
 326.278320312 23.60546875 291.3515625 57.29296875 290.64453125 58 c 2
 312.64453125 134 l 1
 318.069335938 218.421875 324 419.522460938 324 504.64453125 c 0
EndSplineSet
Validated: 524321
EndChar

StartChar: Z
Encoding: 90 90 51
Width: 632
VWidth: 0
Flags: HW
LayerCount: 2
Fore
SplineSet
-2.595703125 701.401367188 m 1
 -1.908203125 702.077148438 55.203125 776.563476562 55.689453125 777.040039062 c 2
 59.8134765625 781.091796875 l 1
 145.603515625 783.50390625 231.455078125 786.313476562 317.413085938 789.821289062 c 1
 404.427734375 797.250976562 l 1
 459.834960938 791.448242188 l 1
 433.588867188 717.66015625 l 1
 396.46484375 640.39453125 l 1
 190.27734375 271.930664062 l 1
 155.626953125 218.529296875 l 1
 155.626953125 218.529296875 165.6796875 214.529296875 166.4765625 214.427734375 c 2
 517.845703125 168.778320312 l 1
 583.407226562 155.671875 l 2
 584.176757812 155.517578125 621.48828125 139.653320312 622.288085938 139.752929688 c 1
 621.48828125 139.653320312 612.763671875 77.35546875 612.568359375 76.0810546875 c 2
 521.4296875 64.5986328125 l 1
 195.637695312 134.836914062 l 1
 115.6328125 161.849609375 l 1
 76.751953125 177.767578125 l 1
 86.47265625 241.439453125 l 1
 179.337890625 393.69921875 262.422851562 549.962890625 349.588867188 704.553710938 c 1
 265.23046875 699.223632812 180.791992188 693.356445312 96.2412109375 686.768554688 c 1
 74.806640625 686.592773438 l 2
 74.154296875 686.58984375 -1.908203125 702.077148438 -2.595703125 701.401367188 c 1
EndSplineSet
Validated: 524321
EndChar

StartChar: d
Encoding: 100 100 52
Width: 538
VWidth: 0
Flags: HW
LayerCount: 2
Fore
SplineSet
115.237304688 78.9755859375 m 5
 120.024414062 86.595703125 122.65625 90.5390625 122.65625 90.5390625 c 6
 226.416992188 205.708007812 l 5
 454.877929688 434.682617188 l 5
 412.19921875 471.33984375 l 5
 252.967773438 594.612304688 l 5
 106.108398438 710.198242188 l 6
 105.646484375 710.862304688 105.919921875 710.458984375 105.46875 711.151367188 c 5
 109.206054688 502.991210938 125.65234375 447.78125 115.237304688 78.9755859375 c 5
87.3076171875 32.3974609375 m 5
 87.630859375 32.9013671875 87.8173828125 33.1904296875 87.8408203125 33.2265625 c 6
 87.84375 33.2314453125 l 6
 87.84765625 33.3447265625 87.66015625 33.1240234375 87.3125 32.630859375 c 4
 87.318359375 32.5537109375 87.3125 32.4755859375 87.3076171875 32.3974609375 c 5
62.5302734375 -7.0673828125 m 5
 62.39453125 -7.064453125 62.3232421875 -7.0458984375 62.3251953125 -7.0078125 c 4
 72.1572265625 235.17578125 70.583984375 490.477539062 65.583984375 738.533203125 c 4
 65.484375 743.506835938 64.5849609375 768.020507812 66.7216796875 768.401367188 c 4
 67.27734375 768.5 82.9052734375 810.130859375 83.4599609375 810.229492188 c 4
 85.486328125 810.590820312 97.5703125 790.896484375 100.376953125 786.873046875 c 6
 247.235351562 671.28515625 l 5
 406.466796875 548.013671875 l 5
 460.50390625 501.599609375 l 6
 467.02734375 491.650390625 484.041992188 483.547851562 486.327148438 473.985351562 c 4
 486.567382812 472.977539062 508.556640625 440.145507812 508.797851562 439.138671875 c 4
 509.037109375 438.131835938 491.818359375 398.319335938 492.059570312 397.3125 c 4
 492.299804688 396.3046875 481.686523438 382.176757812 481.286132812 381.458007812 c 6
 481.286132812 381.458007812 243.29296875 134.9296875 240.328125 132.37109375 c 6
 240.328125 132.37109375 150.359375 28.82421875 114.90234375 6.3603515625 c 5
 88.1416015625 -0.98828125 l 6
 86.421875 -1.474609375 84.7001953125 -1.947265625 83.0078125 -2.3994140625 c 6
 62.0498046875 -8.1552734375 l 6
 62.0087890625 -8.091796875 62.181640625 -7.7099609375 62.5302734375 -7.0673828125 c 5
EndSplineSet
Validated: 524321
EndChar

StartChar: g
Encoding: 103 103 53
Width: 520
VWidth: 0
Flags: HW
LayerCount: 2
Fore
SplineSet
296 17 m 0
 302.947837348 11.8076817227 534.35546875 314.999023438 534.35546875 314.999023438 c 1
 308 462 l 2
 308 462 225.89453125 409.552734375 225 410 c 5
 225.89453125 409.552734375 416.810028575 279.111101143 416 278 c 2
 421.138980319 274.448453392 303 123 303 123 c 0
 305.26953125 123.393554688 75.3276106537 352.599283787 72 352 c 0
 72 352 294.144963656 640.381825818 400 775 c 0
 400.618164062 775.786132812 364.026367188 798.213867188 364.64453125 799 c 1
 364.026367188 798.213867188 293.444335938 775.831054688 294 775 c 0
 -43 346 l 1
 296 17 l 0
EndSplineSet
Validated: 524325
EndChar

StartChar: f
Encoding: 102 102 54
Width: 400
VWidth: 0
Flags: HW
LayerCount: 2
Fore
SplineSet
91.96875 336.69140625 m 0
 -18 292 l 2
 -19.0947265625 291.67578125 -52.396484375 327.638671875 -53.35546875 327.35546875 c 1
 -52.396484375 327.638671875 -45.84765625 356.099609375 -45 356.35546875 c 2
 87 407 l 1
 86.9912109375 412 88.1923828125 423.76171875 91 428 c 0
 93.2861328125 431.450195312 135.1015625 666.788085938 159 692 c 0
 210.881835938 746.732421875 275 776 323 787 c 0
 323.974609375 787.223632812 382.35546875 752 383.35546875 752 c 1
 382.35546875 752 349 716.639648438 348 716.64453125 c 0
 315.001953125 716.8203125 276.856445312 719.13671875 232 672 c 0
 173 610 169.272460938 430.266601562 169.272460938 430.266601562 c 1
 200 439.35546875 l 1
 200 439.35546875 264.296875 459.110351562 344 513.7109375 c 0
 344.70703125 513.00390625 378.530273438 477.790039062 379.35546875 478.35546875 c 1
 378.530273438 477.790039062 344.70703125 443.70703125 344 443 c 0
 264.296875 388.399414062 200 368.64453125 200 368.64453125 c 1
 164.986328125 358.288085938 l 1
 161.98046875 327.212890625 164 261 164 261 c 1
 178 18 l 0
 177.62890625 17.0712890625 109.603515625 12.9189453125 110 12 c 1
 109.603515625 12.9189453125 92.67578125 335.984375 91.96875 336.69140625 c 0
EndSplineSet
Validated: 524325
EndChar

StartChar: h
Encoding: 104 104 55
Width: 421
VWidth: 0
Flags: HW
LayerCount: 2
Fore
SplineSet
85 773.35546875 m 5
 84.9638671875 772.35546875 119.647460938 738.70703125 120.354492188 738 c 4
 118.365234375 682.985351562 122.048828125 627.940429688 117.35546875 573 c 5
 117.35546875 527.35546875 l 1
 298.430664062 527.35546875 l 1
 296.942382812 577.455078125 295.64453125 627.515625 295.64453125 678 c 1
 301.575195312 706 292.483398438 734 295.64453125 762 c 0
 296.3515625 762.70703125 330.887695312 796.361328125 331 797.35546875 c 1
 330.887695312 796.361328125 365.647460938 762.70703125 366.354492188 762 c 0
 363.193359375 734 372.286132812 706 366.35546875 678 c 1
 366.35546875 589.529296875 370.338867188 502.359375 372.35546875 414 c 1
 379 139 l 2
 378.29296875 138.29296875 343.534179688 104.638671875 343.64453125 103.64453125 c 1
 343.534179688 104.638671875 308.997070312 138.29296875 308.290039062 139 c 2
 301.64453125 414 l 1
 301.319335938 428.2421875 300.943359375 442.454101562 300.541015625 456.64453125 c 1
 239.479492188 456.64453125 178.416992188 456.645507812 117.35546875 456.645507812 c 1
 106 172 l 1
 112 88 l 2
 111.29296875 87.29296875 76.5732421875 53.6416015625 76.64453125 52.64453125 c 1
 76.5732421875 53.6416015625 41.99609375 87.29296875 41.2890625 88 c 2
 35.2890625 172 l 1
 46.64453125 573 l 5
 51.337890625 627.940429688 47.6552734375 682.985351562 49.64453125 738 c 4
 50.3515625 738.70703125 84.9638671875 772.35546875 85 773.35546875 c 5
EndSplineSet
Validated: 524321
EndChar

StartChar: i
Encoding: 105 105 56
Width: 372
VWidth: 0
Flags: HW
LayerCount: 2
Fore
SplineSet
279.435546875 774.137695312 m 1
 279.276367188 773.2421875 304.189453125 737.475585938 304.693359375 736.727539062 c 2
 288.302734375 638.583007812 l 1
 305.866210938 632.909179688 323.353515625 626.529296875 341.58984375 621.037109375 c 1
 404.697265625 595.399414062 l 2
 405.202148438 594.650390625 429.130859375 558.32421875 429.956054688 557.98828125 c 1
 429.130859375 558.32421875 394.201171875 532.607421875 393.471679688 532.08984375 c 2
 330.36328125 557.728515625 l 1
 312.341796875 563.155273438 295.051757812 569.450195312 277.696289062 575.073242188 c 1
 173 168 l 1
 295.4140625 152.059570312 l 1
 298.033203125 151.5703125 l 2
 298.538085938 150.821289062 322.41796875 114.323242188 323.291992188 114.161132812 c 1
 322.41796875 114.323242188 287.536132812 88.779296875 286.806640625 88.26171875 c 2
 284.1875 88.7509765625 l 1
 163.03125 104.52734375 l 1
 152.783203125 37.732421875 l 2
 152.052734375 37.2158203125 116.436523438 12.732421875 116.297851562 11.8349609375 c 1
 116.436523438 12.732421875 91.544921875 48.4951171875 91.0390625 49.2431640625 c 2
 100.766601562 112.63671875 l 1
 -12.060546875 127.330078125 l 2
 -12.5654296875 128.078125 -36.439453125 164.625 -37.3193359375 164.740234375 c 1
 -36.439453125 164.625 -1.564453125 190.120117188 -0.833984375 190.638671875 c 2
 110.689453125 176.115234375 l 1
 216.49609375 589.8359375 l 1
 176.640625 596.237304688 136.560546875 599.408203125 98.1767578125 606.564453125 c 2
 90.3173828125 608.029296875 l 2
 89.8115234375 608.77734375 65.931640625 645.276367188 65.05859375 645.439453125 c 1
 65.931640625 645.276367188 100.813476562 670.8203125 101.543945312 671.337890625 c 2
 109.40234375 669.873046875 l 2
 147.583007812 662.754882812 187.440429688 659.579101562 227.086914062 653.24609375 c 1
 242.951171875 748.23828125 l 2
 243.680664062 748.755859375 279.276367188 773.2421875 279.435546875 774.137695312 c 1
EndSplineSet
Validated: 524321
EndChar

StartChar: j
Encoding: 106 106 57
Width: 559
VWidth: 0
Flags: HW
LayerCount: 2
Fore
SplineSet
-23.52734375 72.337890625 m 0
 -23.52734375 72.337890625 200.603515625 36.3662109375 265.420898438 74.2177734375 c 1
 265.420898438 74.2177734375 319.580078125 89.8330078125 346.166015625 179.755859375 c 0
 364.487304688 241.7265625 414.452148438 625.790039062 414.452148438 625.790039062 c 1
 537.93359375 604.737304688 l 2
 538.744140625 605.323242188 577.456054688 634.19140625 578.4453125 634.043945312 c 1
 577.456054688 634.19140625 555.556640625 678.524414062 554.970703125 679.3359375 c 2
 411.318359375 697.7578125 l 1
 403.330078125 708.603515625 403.75390625 708.961914062 392.94921875 711.055664062 c 24
 382.032226562 712.448242188 381.958007812 711.711914062 370.8515625 703.825195312 c 1
 220.16796875 719.903320312 l 2
 219.461914062 720.008789062 176.485351562 674.901367188 175.498046875 675.059570312 c 1
 176.485351562 674.901367188 208.271484375 650.189453125 208.962890625 650.0859375 c 2
 344.51171875 636.27734375 l 1
 257.010742188 160.642578125 l 1
 226.803710938 126.373046875 53.4306640625 141.663085938 53.4306640625 141.663085938 c 1
 53.4306640625 141.663085938 -23.52734375 72.337890625 -23.52734375 72.337890625 c 0
EndSplineSet
Validated: 524329
EndChar

StartChar: m
Encoding: 109 109 58
Width: 560
VWidth: 0
Flags: HW
LayerCount: 2
Fore
SplineSet
294 262 m 1
 266.26953125 370.2109375 213.390625 504.583984375 213.390625 504.583984375 c 1
 84.0263671875 142.110351562 l 1
 72.8310546875 103.091796875 l 2
 72.2724609375 102.522460938 45.3349609375 75.345703125 44.9248046875 74.6337890625 c 1
 45.3349609375 75.345703125 20.5185546875 105.115234375 20.5048828125 105.495117188 c 2
 19.7294921875 125.716796875 l 1
 200.3359375 643.12890625 l 1
 244.926757812 569.584960938 l 1
 301.349609375 372.288085938 l 1
 403.564453125 622.018554688 l 1
 442.286132812 436.66015625 481.9921875 252.301757812 521.125 67.359375 c 0
 520.56640625 66.7890625 493.045898438 39.7138671875 493.21875 38.90234375 c 1
 493.045898438 39.7138671875 469.325195312 69.1875 468.798828125 69.7626953125 c 0
 428.606445312 113.665039062 385.41796875 464.719726562 385.41796875 464.719726562 c 1
 294 262 l 1
EndSplineSet
Validated: 524321
EndChar

StartChar: n
Encoding: 110 110 59
Width: 445
VWidth: 0
Flags: HW
LayerCount: 2
Fore
SplineSet
351.459960938 170.559570312 m 0
 387.12890625 139.610351562 422.77734375 254.65625 420.631835938 278.200195312 c 0
 419.6171875 289.33203125 410.791015625 530.740234375 410.791015625 530.740234375 c 2
 403.411132812 613.540039062 l 2
 402.831054688 614.028320312 374.48046875 637.247070312 374.419921875 637.935546875 c 1
 374.48046875 637.247070312 346.0078125 614.028320312 345.428710938 613.540039062 c 2
 352.80859375 530.740234375 l 1
 352.80859375 530.740234375 367.665039062 301.0625 368.6796875 289.9296875 c 0
 370.961914062 264.8984375 364.828125 240.055664062 360.192382812 221.314453125 c 1
 298.98046875 293.379882812 l 1
 83.611328125 555.580078125 l 1
 54.6201171875 579.974609375 l 1
 25.62890625 555.580078125 l 1
 32.48046875 414.8203125 l 0
 32.48046875 414.8203125 33.4658203125 297.897460938 40.388671875 238.870117188 c 0
 41.7646484375 227.139648438 38.712890625 215.41015625 40.388671875 203.6796875 c 0
 40.96875 203.19140625 69.2822265625 179.969726562 69.3798828125 179.28515625 c 1
 69.2822265625 179.969726562 97.7919921875 203.19140625 98.37109375 203.6796875 c 0
 96.6953125 215.41015625 98.37109375 227.083007812 98.37109375 238.870117188 c 0
 98.37109375 298.184570312 83.3203125 408.565429688 83.3203125 467.950195312 c 1
 97.251953125 447.494140625 308.904296875 207.485351562 351.459960938 170.559570312 c 0
EndSplineSet
Validated: 524329
EndChar

StartChar: o
Encoding: 111 111 60
Width: 603
VWidth: 0
Flags: HW
LayerCount: 2
Fore
SplineSet
193.12109375 647.442382812 m 0
 192.811523438 648.272460938 78.9521484375 236.004882812 78.9521484375 236.004882812 c 2
 167.064453125 217.1171875 l 1
 282.63671875 181.984375 388.669921875 163.637695312 408.500976562 163.456054688 c 1
 437.306640625 262.530273438 494.303710938 498.359375 494.303710938 498.359375 c 0
 193.12109375 647.442382812 l 0
3.7255859375 208.520507812 m 0
 126.626953125 662.459960938 l 0
 126.7421875 663.362304688 133.688476562 690.02734375 133.842773438 690.924804688 c 1
 134.69921875 690.609375 146.95703125 743.756835938 146.9921875 743.744140625 c 2
 186.129882812 729.3125 l 1
 225.477539062 712.69140625 l 1
 225.477539062 712.69140625 539.794921875 562.866210938 589.3984375 515.30078125 c 0
 614.1796875 491.541015625 488.412109375 135.237304688 488.412109375 135.237304688 c 1
 470.954101562 93.09375 l 1
 441.130859375 79.6953125 3.7255859375 208.520507812 3.7255859375 208.520507812 c 0
EndSplineSet
Validated: 524321
EndChar

StartChar: p
Encoding: 112 112 61
Width: 492
VWidth: 0
Flags: HW
LayerCount: 2
Fore
SplineSet
66 747.35546875 m 1
 66.228515625 746.381835938 100.6484375 712.70703125 101.35546875 712 c 0
 102.650390625 706.483398438 103.923828125 700.934570312 105.173828125 695.35546875 c 1
 106 695.35546875 l 1
 171.159179688 687.384765625 374.857421875 662.747070312 374.857421875 662.747070312 c 1
 374.857421875 662.747070312 413.751953125 653.875976562 424.856445312 649.391601562 c 0
 425.784179688 649.017578125 452.10546875 619.65234375 453.032226562 619.27734375 c 0
 453.959960938 618.90234375 462.211914062 608.391601562 462.211914062 607.391601562 c 0
 462.211914062 606.391601562 444.077148438 585.045898438 443.354492188 584.354492188 c 0
 442.6328125 583.6640625 408.72265625 549.690429688 408 549 c 0
 385.883789062 527.84375 350.729492188 499.234375 338.856445312 488.036132812 c 1
 154.487304688 345.719726562 l 1
 155.14453125 332.432617188 156 306 156 306 c 0
 166 202 l 1
 173 68 l 2
 173.034757292 67.3346461221 129.9140625 37.640625 130 36.64453125 c 1
 129.9140625 37.640625 95.3515625 71.29296875 94.64453125 72 c 2
 82.64453125 212 l 1
 72 312 l 0
 30.6455078125 712 l 0
 30.2647043653 712.924540487 66.228515625 746.381835938 66 747.35546875 c 1
119.811523438 622.932617188 m 1
 130.186523438 565.599609375 144.797851562 472.192382812 149.924804688 412.780273438 c 1
 338.856445312 558.747070312 l 1
 361.926757812 580.505859375 371.19921875 589.100585938 374.577148438 592.129882812 c 1
 314.454101562 612.245117188 181.396484375 615.18359375 119.811523438 622.932617188 c 1
EndSplineSet
Validated: 524321
EndChar

StartChar: q
Encoding: 113 113 62
Width: 450
VWidth: 0
Flags: HW
LayerCount: 2
Fore
SplineSet
422.556640625 636.69921875 m 1
 422.126953125 635.796875 381.359375 610.168945312 380.51953125 609.627929688 c 0
 378.0859375 604.509765625 375.666992188 599.356445312 373.265625 594.16796875 c 1
 372.458007812 594.342773438 l 1
 307.086914062 600.342773438 102.7890625 619.373046875 102.7890625 619.373046875 c 1
 102.7890625 619.373046875 62.8974609375 618.934570312 51.0966796875 616.901367188 c 0
 50.1103515625 616.731445312 18.1708984375 593.602539062 17.1845703125 593.431640625 c 0
 16.1982421875 593.26171875 5.9091796875 584.735351562 5.697265625 583.7578125 c 0
 5.486328125 582.78125 18.6923828125 558.080078125 19.251953125 557.251953125 c 0
 19.8125 556.423828125 45.763671875 516.043945312 46.32421875 515.215820312 c 0
 63.4619140625 489.859375 91.765625 454.45703125 101 441 c 1
 251.073242188 262.888671875 l 1
 247.619140625 250.041015625 241.189453125 224.388671875 241.189453125 224.388671875 c 0
 229.928710938 187.127929688 l 1
 194.728515625 57.64453125 l 2
 194.553710938 57.001953125 230.413085938 18.853515625 230.118164062 17.8994140625 c 1
 230.413085938 18.853515625 271.314453125 44.4287109375 272.15625 44.970703125 c 2
 313.512695312 179.259765625 l 1
 324.555664062 212.475585938 l 0
 449.626953125 594.662109375 l 0
 450.1953125 595.485351562 422.126953125 635.796875 422.556640625 636.69921875 c 1
343.631835938 526.483398438 m 1
 321.357421875 472.64453125 287.309570312 384.4453125 269.724609375 327.463867188 c 1
 115.96484375 510.109375 l 1
 98.021484375 536.2578125 90.77734375 546.620117188 88.1181640625 550.294921875 c 1
 151.135742188 557.231445312 281.801757812 531.943359375 343.631835938 526.483398438 c 1
EndSplineSet
Validated: 524329
EndChar

StartChar: r
Encoding: 114 114 63
Width: 466
VWidth: 0
Flags: HW
LayerCount: 2
Fore
SplineSet
407.701171875 422.942382812 m 1024
138.784179688 505.651367188 m 1
 151.30859375 568.491210938 161.828125 608.794921875 173.928710938 671.712890625 c 0
 174.12109375 672.717773438 153.01953125 705.184570312 153.223632812 706.186523438 c 1
 153.01953125 705.184570312 129.009765625 690.245117188 128.817382812 689.241210938 c 0
 97.37890625 525.577148438 64.0048828125 362.270507812 31.0634765625 198.8828125 c 1
 17.83203125 113.92578125 l 2
 18.146484375 113.124023438 33.732421875 74.837890625 33.576171875 73.830078125 c 1
 33.732421875 74.837890625 63.1328125 103.969726562 63.7373046875 104.584960938 c 2
 76.96875 189.541992188 l 1
 92.537109375 266.758789062 101.086914062 315.192382812 116.598632812 392.418945312 c 1
 115.049804688 393.888671875 122.47265625 424.614257812 122.47265625 424.614257812 c 1
 122.47265625 424.614257812 136.508789062 424.817382812 142.876953125 416.124023438 c 0
 191.705078125 349.47265625 293.358825416 168.755074277 323.251953125 111.92578125 c 2
 365.6640625 31.296875 l 2
 366.267578125 31.912109375 395.442382812 62.77734375 395.825195312 62.0517578125 c 1
 395.442382812 62.77734375 380.396484375 101.344726562 380.081054688 102.146484375 c 2
 337.668945312 182.775390625 l 1
 297.168945312 244.272460938 208.119140625 484.23828125 135.060546875 474.061523438 c 1
 175.069335938 468.0078125 413.565429688 417.389648438 427.568359375 419.756835938 c 0
 435.184250381 421.04419824 410.844613542 476.404635936 409.126953125 481.557617188 c 0
 399.924804688 509.15625 355.700552234 570.351622008 304.5 627.776367188 c 2
 198.067382812 747.147460938 l 2
 197.920898438 747.310546875 176.495117188 731.223632812 176.016601562 731.80859375 c 1
 176.495117188 731.223632812 203.529296875 662.654296875 203.987304688 662.095703125 c 2
 290.08203125 556.926757812 l 1
 321.544921875 511.688476562 356.197265625 469.522460938 356.197265625 469.522460938 c 1
 341.17578125 473.530273438 290.37890625 483.150390625 290.37890625 483.150390625 c 1
 184.635742188 498.407226562 l 1
 159.35546875 500.421875 l 1
 159.35546875 500.421875 139.709960938 502.341796875 138.784179688 505.651367188 c 1
EndSplineSet
Validated: 524325
EndChar

StartChar: s
Encoding: 115 115 64
Width: 530
VWidth: 0
Flags: HW
LayerCount: 2
Fore
SplineSet
520.26953125 247.59375 m 0
 359.928710938 342.39453125 l 0
 168.745117188 449.806640625 l 1
 427.140625 575.963867188 l 0
 426.823242188 575.204101562 479.692382812 607.194335938 480.28125 607.532226562 c 1
 479.692382812 607.194335938 443.0234375 632.880859375 442.416015625 632.66015625 c 0
 318.357421875 587.51953125 216.5546875 540.77734375 106.055664062 473.576171875 c 1
 106.055664062 473.576171875 75.5546875 453.415039062 74.4697265625 443.385742188 c 0
 72.703125 427.0625 86.9873046875 409.608398438 86.9873046875 409.608398438 c 1
 86.986328125 409.606445312 336.904296875 290.977539062 336.904296875 290.977539062 c 0
 336.904296875 290.977539062 378.828125 270.76953125 387.668945312 264.600585938 c 1
 182.42578125 201.017578125 l 1
 108.424804688 180.534179688 l 2
 107.872070312 180.4140625 24.75390625 156.056640625 24.1435546875 155.94140625 c 1
 24.75390625 156.056640625 -24.009765625 87.091796875 -23.7421875 87.142578125 c 2
 172.909179688 136.194335938 l 1
 520.26953125 247.59375 l 0
EndSplineSet
Validated: 524329
EndChar

StartChar: u
Encoding: 117 117 65
Width: 526
VWidth: 0
Flags: HW
LayerCount: 2
Fore
SplineSet
357 240 m 2
 459 397 l 0
 521.3828125 549.1328125 l 2
 528.057617188 564.958007812 l 2
 527.271484375 565.331054688 488.505859375 583.090820312 488.724609375 583.607421875 c 1
 488.505859375 583.090820312 450.177734375 565.331054688 449.391601562 564.958007812 c 2
 442.716796875 549.1328125 l 2
 412.213867188 476.81640625 371.912109375 389.299804688 371.912109375 389.299804688 c 25
 313.810546875 269.993164062 l 1
 221 359 l 0
 71 561 l 1
 66 568 l 2
 26.6669921875 586.650390625 l 1
 27.517578125 586.459960938 -11 566.373046875 -11 566 c 2
 -11 566 l 1
 136.853515625 346.572265625 l 0
 282.516601562 235.797851562 l 0
 283.549804688 235.385742188 321.3671875 210.475585938 322 211 c 2
 357 240 l 2
357 240 m 1
 357 240 l 1
 357 240 l 1
EndSplineSet
Validated: 524325
EndChar

StartChar: v
Encoding: 118 118 66
Width: 460
VWidth: 0
Flags: HW
LayerCount: 2
Fore
SplineSet
209 150 m 4
 456.860351562 548.719726562 l 5
 454.162109375 564.080078125 l 6
 454.111328125 564.368164062 417.59375 586.151367188 418.099609375 586.70703125 c 5
 417.59375 586.151367188 382.758789062 564.532226562 382.037109375 564.080078125 c 6
 369.796875 550.639648438 l 5
 221.240234375 270.319335938 l 5
 221.240234375 270.319335938 133.51953125 535.919921875 74.72265625 567.919921875 c 4
 73.951171875 568.338867188 38.962890625 589.935546875 38.66015625 590.546875 c 5
 38.962890625 589.935546875 3.318359375 568.373046875 2.59765625 567.919921875 c 6
 183.137695312 203.120117188 l 5
 209 150 l 4
EndSplineSet
Validated: 524329
EndChar

StartChar: w
Encoding: 119 119 67
Width: 548
VWidth: 0
Flags: HW
LayerCount: 2
Fore
SplineSet
255.719726562 453.599609375 m 1
 291.196289062 364.60546875 354.442382812 254.799804688 354.442382812 254.799804688 c 1
 466.909179688 561.400390625 l 1
 476.17578125 594.299804688 l 2
 476.721679688 594.794921875 503.094726562 618.44140625 503.477539062 619.048828125 c 1
 503.094726562 618.44140625 530.741210938 594.615234375 530.778320312 594.299804688 c 2
 532.821289062 577.5 l 1
 376.5 140 l 1
 325.59765625 199.5 l 1
 254.815429688 361.536132812 l 1
 163.708984375 149.799804688 l 1
 112.077148438 302.578125 59.4833984375 454.484375 7.4501953125 606.900390625 c 0
 7.9970703125 607.395507812 34.98046875 630.98046875 34.751953125 631.6484375 c 1
 34.98046875 630.98046875 61.4697265625 607.358398438 62.052734375 606.900390625 c 0
 106.56640625 571.900390625 172.975585938 281.400390625 172.975585938 281.400390625 c 1
 255.719726562 453.599609375 l 1
EndSplineSet
Validated: 524321
EndChar

StartChar: x
Encoding: 120 120 68
Width: 483
VWidth: 0
Flags: HW
LayerCount: 2
Fore
SplineSet
51.7109375 558.16796875 m 0
 61.16015625 563.041015625 73.0654296875 559.08984375 77.8623046875 549.490234375 c 0
 118.305664062 468.544921875 161.185546875 388.822265625 206.258789062 310.265625 c 1
 295.721679688 372.754882812 380.021484375 437.967773438 461.493164062 509.491210938 c 0
 469.510742188 516.529296875 482.002929688 515.603515625 488.9296875 507.458007812 c 0
 495.858398438 499.311523438 494.947265625 486.620117188 486.9296875 479.581054688 c 0
 405.616210938 408.198242188 318.524414062 337.069335938 228.049804688 272.665039062 c 1
 257.510742188 222.3359375 287.86328125 172.487304688 319.043945312 123.102539062 c 0
 319.24609375 122.782226562 319.514648438 122.319335938 319.650390625 122.073242188 c 2
 348.81640625 69.0458984375 l 2
 353.985351562 59.6484375 350.575195312 47.4033203125 341.325195312 42.15234375 c 0
 332.075195312 36.900390625 320.0234375 40.3662109375 314.85546875 49.763671875 c 2
 285.9765625 102.266601562 l 1
 255.1484375 151.106445312 225.115234375 200.41015625 195.938476562 250.194335938 c 1
 141.921875 213.0546875 84.9462890625 181.008789062 31.1240234375 147.987304688 c 0
 21.55078125 142.11328125 11.05078125 134.990234375 1.16015625 144.412109375 c 0
 -6.5703125 151.774414062 -6.974609375 164.494140625 0.2734375 172.34765625 c 0
 3.9189453125 176.297851562 6.8642578125 179.872070312 11.4736328125 182.721679688 c 0
 67.748046875 217.509765625 121.775390625 252.375 174 288 c 1
 128.072265625 367.947265625 84.3759765625 449.125976562 43.169921875 531.598632812 c 0
 38.3740234375 541.198242188 42.2626953125 553.293945312 51.7109375 558.16796875 c 0
EndSplineSet
Validated: 524289
EndChar

StartChar: y
Encoding: 121 121 69
Width: 499
VWidth: 0
Flags: HW
LayerCount: 2
Fore
SplineSet
243 499.509765625 m 0
 175.83984375 550.984375 l 1
 41.51953125 659.260742188 l 0
 41.26171875 660.090820312 4.2470703125 688.5625 3.5595703125 688.862304688 c 1
 4.2470703125 688.5625 41.51953125 722.903320312 41.51953125 722.015625 c 0
 175.83984375 613.740234375 l 1
 243 562.264648438 l 2
 243.114257812 562.125976562 244.411132812 560.53515625 246.369140625 558.137695312 c 1
 245.919921875 569.9375 l 0
 246.073242188 570.8046875 269.391601562 597.459960938 269.280273438 598.337890625 c 1
 269.391601562 597.459960938 297.7734375 584.978515625 297.5390625 584.137695312 c 0
 297.55078125 579.696289062 l 1
 361.259765625 641.825195312 l 1
 425.970703125 722.587890625 l 0
 426.321289062 723.366210938 451.302734375 753.29296875 451.780273438 753.965820312 c 1
 451.302734375 753.29296875 477.073242188 723.21484375 477.58984375 722.587890625 c 0
 457.262695312 693.934570312 436.862304688 663.9296875 414.828125 635.96875 c 0
 414.323242188 635.328125 311.573242188 532.154296875 311.067382812 531.513671875 c 0
 305.572265625 524.439453125 301.606445312 521.6796875 298.041015625 519.232421875 c 1
 297.758789062 475.791992188 294.830078125 392.4375 294.830078125 392.4375 c 0
 294.830078125 392.4375 290.290039062 245.487304688 286.329101562 170.5625 c 1
 270.26953125 103.112304688 l 2
 269.752929688 102.485351562 244.663085938 72.5869140625 244.459960938 71.734375 c 1
 244.663085938 72.5869140625 219.166992188 102.485351562 218.650390625 103.112304688 c 2
 234.7109375 170.5625 l 1
 238.670898438 245.487304688 243 423.963867188 243 499.509765625 c 0
EndSplineSet
Validated: 524321
EndChar

StartChar: z
Encoding: 122 122 70
Width: 452
VWidth: 0
Flags: HW
LayerCount: 2
Fore
SplineSet
13.685546875 573.025390625 m 1
 14.1875 573.579101562 55.87890625 634.658203125 56.2333984375 635.048828125 c 2
 59.244140625 638.37109375 l 1
 56.2333984375 635.048828125 247.291992188 645.529296875 247.291992188 645.529296875 c 1
 310.8125 651.622070312 l 1
 351.259765625 646.86328125 l 1
 332.100585938 586.357421875 l 1
 305 523 l 1
 154.482421875 220.859375 l 1
 129.1875 177.0703125 l 1
 129.1875 177.0703125 136.526367188 173.790039062 137.108398438 173.70703125 c 2
 393.607421875 136.274414062 l 1
 441.467773438 125.52734375 l 2
 442.029296875 125.400390625 469.266601562 112.391601562 469.850585938 112.473632812 c 1
 469.266601562 112.391601562 462.897460938 61.3076171875 462.754882812 60.2626953125 c 2
 396.223632812 50.8466796875 l 1
 158.395507812 108.442382812 l 1
 99.9921875 130.592773438 l 1
 71.609375 143.645507812 l 1
 78.705078125 195.856445312 l 1
 270.780273438 575.610351562 l 1
 85.8359375 561.026367188 l 1
 70.189453125 560.881835938 l 2
 69.712890625 560.879882812 14.1875 573.579101562 13.685546875 573.025390625 c 1
EndSplineSet
Validated: 524321
EndChar

StartChar: dollar
Encoding: 36 36 71
Width: 708
VWidth: 0
Flags: HW
LayerCount: 2
Fore
SplineSet
686.35546875 489 m 1
 685.438476562 489.399414062 651.993164062 453.52734375 651 453.64453125 c 0
 468.702148438 549.182617188 l 1
 415.814453125 378.037109375 l 1
 416 376 539.999023438 308.35546875 539.999023438 308.35546875 c 0
 576 285 l 0
 576.736328125 284.323242188 607.764648438 258.139648438 608.596679688 257.584960938 c 0
 609.4296875 257.030273438 617.35546875 247 617.35546875 246 c 0
 617.35546875 244.815429688 598.452148438 225.420898438 572.770507812 200.087890625 c 0
 572.05859375 199.385742188 538.126953125 165.434570312 537.415039062 164.732421875 c 0
 486.052734375 114.065429688 407.579101562 39.64453125 399 39.64453125 c 0
 381.142578125 39.64453125 354.15234375 49.2783203125 326.317382812 61.3828125 c 1
 278.35546875 -87 l 2
 277.6484375 -87.70703125 243.307617188 -121.403320312 243 -122.35546875 c 1
 243.307617188 -121.403320312 208.3515625 -87.70703125 207.64453125 -87 c 2
 264.912109375 90.1708984375 l 1
 251.470703125 96.6455078125 239.700195312 102.206054688 231 105.64453125 c 2
 66 171.64453125 l 2
 65.29296875 172.3515625 31.5732421875 206.62890625 30.6455078125 207 c 1
 31.5732421875 206.62890625 65.29296875 241.6484375 66 242.35546875 c 2
 231 176.354492188 l 2
 243.76171875 171.311523438 263.12890625 161.701171875 284.684570312 151.342773438 c 1
 303.64453125 210 l 1
 312.409179688 256.974609375 323.922851562 303.271484375 336.829101562 349.224609375 c 1
 224.999023438 423.64453125 l 1
 186 454 l 2
 186.000976562 454.009765625 265.623046875 555.016601562 316.302734375 619.002929688 c 0
 316.923828125 619.787109375 333.379882812 643.215820312 334 644 c 2
 360.64453125 675 l 0
 361.64453125 675 395 710.35546875 396 710.35546875 c 0
 407.953125 699.396484375 420.76953125 687.739257812 434.288085938 675.750976562 c 1
 442.875976562 709.22265625 450.5 742.930664062 456.645507812 777 c 0
 457.352539062 777.70703125 491.823242188 811.37109375 492.000976562 812.35546875 c 1
 491.823242188 811.37109375 526.6484375 777.70703125 527.35546875 777 c 0
 518.208984375 726.287109375 505.784179688 676.376953125 491.78515625 626.8515625 c 1
 491.78515625 626.8515625 651.70703125 523.6484375 651 524.35546875 c 0
 650.29296875 525.0625 685.438476562 489.399414062 686.35546875 489 c 1
408.703125 584.401367188 m 1
 398.927734375 590.50390625 392.016601562 595.184570312 389.033203125 597.853515625 c 1
 388.412109375 597.069335938 374 602 374 602 c 1
 286.303710938 458.995117188 l 1
 356.094726562 414.763671875 l 1
 408.703125 584.401367188 l 1
346.478515625 123.755859375 m 1
 366.814453125 115.850585938 385.51171875 110.354492188 399 110.354492188 c 0
 407.065429688 110.35546875 476.907226562 176.1328125 527.919921875 226.109375 c 0
 534.255859375 232.48828125 539.326171875 237.595703125 539.583007812 237.859375 c 1
 492.6953125 262.66796875 444.900390625 287.627929688 397.930664062 313.8828125 c 1
 388.921875 279.5390625 380.877929688 244.95703125 374.35546875 210 c 1
 346.478515625 123.755859375 l 1
EndSplineSet
Validated: 524325
EndChar

StartChar: percent
Encoding: 37 37 72
Width: 643
VWidth: 0
Flags: HW
LayerCount: 2
Fore
SplineSet
571 782.35546875 m 1
 570.5 781.489257812 605.6484375 747.70703125 606.35546875 747 c 0
 487.86328125 541.499023438 307 354 150.35546875 210 c 1
 129.354492188 168 l 2
 128.647460938 167.29296875 94.447265625 133.5390625 94 132.64453125 c 1
 94.447265625 133.5390625 59.3515625 167.29296875 58.64453125 168 c 2
 79.64453125 210 l 1
 219.1796875 398.599609375 397 591 535.64453125 747 c 0
 536.30876488 747.747382139 570.5 781.489257812 571 782.35546875 c 1
400.645507812 180 m 1
 401.243164062 180.801757812 427.569335938 209.166015625 428.279296875 209.870117188 c 0
 428.47265625 210.063476562 431.15625 212.74609375 434.966796875 216.555664062 c 0
 435.0078125 216.596679688 435.047851562 216.638671875 435.088867188 216.680664062 c 2
 428.279296875 209.870117188 l 2
 430.508789062 212.081054688 432.74609375 214.307617188 434.966796875 216.555664062 c 0
 438.116210938 219.706054688 442.036132812 223.626953125 445.95703125 227.547851562 c 2
 435.088867188 216.680664062 l 2
 453.012695312 234.836914062 469.81640625 254.419921875 472.64453125 279 c 0
 473.352539062 279.70703125 507.885742188 313.361328125 508 314.35546875 c 1
 507.885742188 313.361328125 542.6484375 279.70703125 543.35546875 279 c 0
 540.170898438 251.319335938 519.260742188 229.9765625 498.989257812 209.870117188 c 2
 481.311523438 192.192382812 l 1
 498.989257812 209.870117188 l 2
 498.279296875 209.166015625 471.954101562 180.801757812 471.35546875 180 c 1
 471.287109375 180.069335938 470.565429688 180.135742188 469.319335938 180.198242188 c 0
 466.047851562 176.926757812 463.810546875 174.690429688 463.634765625 174.514648438 c 2
 469.317382812 180.198242188 l 1
 457.79296875 180.775390625 401.408203125 181.022460938 400.645507812 180 c 1
100 716.35546875 m 1
 100.03515625 715.35546875 134.647460938 681.70703125 135.35546875 681 c 0
 136 663.002929688 116.409179688 649.483398438 123.35546875 630 c 1
 102.35546875 582 l 2
 101.6484375 581.29296875 67.400390625 547.560546875 67 546.64453125 c 1
 67.400390625 547.560546875 32.3515625 581.29296875 31.64453125 582 c 2
 52.64453125 630 l 1
 45.6982421875 649.483398438 65.2890625 663.002929688 64.64453125 681 c 0
 65.3515625 681.70703125 100.03515625 715.35546875 100 716.35546875 c 1
EndSplineSet
Validated: 524325
EndChar

StartChar: less
Encoding: 60 60 73
Width: 724
VWidth: 0
Flags: HW
LayerCount: 2
Fore
SplineSet
511 741 m 25
 628 663 l 25
 76 366 l 25
 715 120 l 25
 592 36 l 25
 592 36 13 351 0 351 c 0
 -13 351 511 741 511 741 c 25
EndSplineSet
Validated: 33
EndChar

StartChar: greater
Encoding: 62 62 74
Width: 724
VWidth: 0
Flags: HW
LayerCount: 2
Fore
SplineSet
206 741 m 29
 89 663 l 29
 641 366 l 29
 2 120 l 29
 125 36 l 29
 125 36 704 351 717 351 c 4
 730 351 206 741 206 741 c 29
EndSplineSet
Validated: 41
EndChar

StartChar: equal
Encoding: 61 61 75
Width: 1000
VWidth: 0
Flags: H
LayerCount: 2
Fore
SplineSet
243.025390625 342.900390625 m 1
 732.940429688 342.900390625 l 25
 709.85546875 245.700195312 l 25
 709.85546875 245.700195312 273.8046875 260.280273438 273.8046875 262.709960938 c 0
 273.8046875 265.139648438 235.330078125 289.440429688 235.330078125 289.440429688 c 25
 243.025390625 342.900390625 l 1
260.299804688 139.770507812 m 5
 704.900390625 142.200195312 l 29
 722 45 l 5
 273.125 66.8701171875 l 29
 260.299804688 139.770507812 l 5
EndSplineSet
Validated: 524289
EndChar

StartChar: hyphen
Encoding: 45 45 76
Width: 477
VWidth: 0
Flags: HW
LayerCount: 2
Fore
SplineSet
1.2998046875 86.7705078125 m 1
 445.900390625 89.2001953125 l 25
 463 -8 l 1
 14.125 13.8701171875 l 25
 1.2998046875 86.7705078125 l 1
EndSplineSet
Validated: 524289
EndChar

StartChar: parenleft
Encoding: 40 40 77
Width: 535
VWidth: 0
Flags: HW
LayerCount: 2
Fore
SplineSet
388 753 m 1
 460 687 l 25
 283 606 l 1
 283 606 115 378 112 375 c 0
 109 372 160 114 160 114 c 1
 490 -45 l 1
 433 -99 l 1
 145 -18 l 25
 34 123 l 1
 58 468 l 25
 193 666 l 25
 388 753 l 1
EndSplineSet
Validated: 33
EndChar

StartChar: parenright
Encoding: 41 41 78
Width: 370
VWidth: 0
Flags: HW
LayerCount: 2
Fore
SplineSet
79.7001953125 757.586914062 m 1
 28.580078125 693.072265625 l 25
 154.25 613.89453125 l 1
 154.25 613.89453125 273.530273438 391.024414062 275.66015625 388.091796875 c 0
 277.790039062 385.16015625 241.580078125 132.96484375 241.580078125 132.96484375 c 1
 7.2802734375 -22.4580078125 l 1
 47.75 -75.2431640625 l 1
 252.23046875 3.9345703125 l 25
 331.040039062 141.762695312 l 1
 314 479 l 25
 218.150390625 672.544921875 l 25
 79.7001953125 757.586914062 l 1
EndSplineSet
Validated: 524329
EndChar

StartChar: asterisk
Encoding: 42 42 79
Width: 554
VWidth: 0
Flags: HW
LayerCount: 2
Fore
SplineSet
206 370 m 25
 212 486 l 25
 244 524 l 25
 244 524 270 342 272 342 c 0
 274 342 404 444 404 444 c 25
 456 448 l 25
 324 294 l 25
 468 290 l 25
 518 248 l 25
 322 234 l 25
 446 130 l 25
 448 98 l 25
 300 184 l 25
 276 200 l 25
 272 42 l 25
 242 28 l 25
 242 28 214 54 212 58 c 0
 210 62 214 228 214 228 c 25
 136 112 l 25
 136 112 124 122 124 126 c 0
 124 130 170 242 170 242 c 25
 30 252 l 25
 28 282 l 25
 186 308 l 25
 82 370 l 25
 82 402 l 25
 206 370 l 25
EndSplineSet
Validated: 33
EndChar

StartChar: comma
Encoding: 44 44 80
Width: 173
VWidth: 0
Flags: HW
LayerCount: 2
Fore
SplineSet
98 234 m 25
 164 150 l 1
 -11 8 l 17
 29 144 l 1
 98 234 l 25
EndSplineSet
Validated: 1
EndChar

StartChar: period
Encoding: 46 46 81
Width: 173
VWidth: 0
Flags: HW
LayerCount: 2
Fore
SplineSet
88 234 m 25
 154 150 l 25
 67 93 l 25
 19 144 l 25
 88 234 l 25
EndSplineSet
Validated: 1
EndChar

StartChar: ampersand
Encoding: 38 38 82
Width: 656
VWidth: 0
Flags: HW
LayerCount: 2
Fore
SplineSet
275.0703125 372.990234375 m 1
 339.814453125 599.595703125 l 1
 256.499023438 576.563476562 170.376953125 556.337890625 84.611328125 535.754882812 c 1
 145.059570312 481.8828125 209.061523438 427.81640625 275.0703125 372.990234375 c 1
435.782226562 240.29296875 m 2
 435 240 623.58203125 99.9248046875 624.46875 99.4619140625 c 1
 623.58203125 99.9248046875 559.70703125 66.70703125 559 66 c 0
 523.033203125 99.9150390625 482.323242188 129.086914062 442.999023438 159.64453125 c 1
 434.16015625 168.483398438 l 1
 434.16015625 168.483398438 420.322265625 184.397460938 388.662109375 213.639648438 c 1
 345.27734375 188.747070312 303.251953125 161.0390625 267.208007812 139.264648438 c 2
 136 60 l 1
 194 187 l 1
 196.985351562 182.134765625 229.743164062 279.823242188 252.612304688 320.8359375 c 1
 202.403320312 361.259765625 66.43359375 498.298828125 29.3994140625 534.912109375 c 0
 28.876953125 535.765625 17.2841796875 560.638671875 17.6455078125 561 c 2
 53 596.35546875 l 1
 165.556640625 624.94140625 277.828125 653.861328125 389 683.35546875 c 1
 424.35546875 648 l 1
 340.35546875 354 l 1
 336.493164062 345.497070312 332.708007812 337.0390625 328.870117188 328.46484375 c 1
 347.456054688 313.125976562 366.165039062 297.716796875 384.961914062 282.224609375 c 1
 473.383789062 333.088867188 563.6015625 380.169921875 587 395.354492188 c 0
 587.838867188 395.899414062 598.29296875 406.647460938 599 407.354492188 c 1
 598.29296875 406.647460938 633.6484375 372.70703125 634.35546875 372 c 1
 618.5703125 356.21484375 604.26171875 338.60546875 587 324.64453125 c 0
 569.586914062 310.560546875 435.782226562 240.29296875 435.782226562 240.29296875 c 2
219 158 m 1
 237.741210938 170.4296875 314.420898438 240.512695312 336.196289062 253.59765625 c 1
 326.272460938 261.678710938 316.15234375 269.842773438 305.927734375 278.059570312 c 1
 297.057617188 259.13671875 231.181640625 181.473632812 219 158 c 1
340.014648438 255.88671875 m 2
 340.162109375 255.975585938 340.309570312 256.063476562 340.45703125 256.151367188 c 1
 338.970703125 257.409179688 337.465820312 258.678710938 335.94140625 259.9609375 c 2
 340.014648438 255.88671875 l 2
EndSplineSet
Validated: 524321
EndChar

StartChar: quotesingle
Encoding: 39 39 83
Width: 173
VWidth: 0
Flags: HW
LayerCount: 2
Fore
SplineSet
100 796 m 29
 166 712 l 5
 -9 570 l 21
 31 706 l 5
 100 796 l 29
EndSplineSet
Validated: 1
EndChar

StartChar: underscore
Encoding: 95 95 84
Width: 464
VWidth: 0
Flags: HW
LayerCount: 2
Fore
SplineSet
4.3994140625 37.5703125 m 1
 449 40 l 25
 466.099609375 -57.2001953125 l 1
 17.224609375 -35.330078125 l 25
 4.3994140625 37.5703125 l 1
EndSplineSet
Validated: 524289
EndChar

StartChar: grave
Encoding: 96 96 85
Width: 173
VWidth: 0
Flags: HW
LayerCount: 2
Fore
SplineSet
-4.5380859375 768.256835938 m 29
 92 814 l 5
 191.685546875 611.880859375 l 21
 67.931640625 681.02734375 l 5
 -4.5380859375 768.256835938 l 29
EndSplineSet
Validated: 524289
EndChar

StartChar: bracketleft
Encoding: 91 91 86
Width: 355
VWidth: 0
Flags: HW
LayerCount: 2
Fore
SplineSet
29.4697265625 754.5 m 25
 343.629882812 760.76953125 l 25
 295.434570312 597.75 l 25
 72.3095703125 685.530273438 l 25
 93.73046875 127.5 l 25
 327.565429688 133.76953125 l 25
 297.219726562 17.775390625 l 25
 61.599609375 14.6396484375 l 25
 29.4697265625 754.5 l 25
EndSplineSet
Validated: 524289
EndChar

StartChar: bracketright
Encoding: 93 93 87
Width: 355
VWidth: 0
Flags: HW
LayerCount: 2
Fore
SplineSet
5.7822265625 760.76953125 m 29
 313.66015625 754.5 l 25
 282.172851562 14.6396484375 l 25
 51.2646484375 17.775390625 l 25
 21.525390625 133.76953125 l 25
 250.684570312 127.5 l 25
 271.676757812 685.530273438 l 25
 53.013671875 597.75 l 25
 5.7822265625 760.76953125 l 29
EndSplineSet
Validated: 524289
EndChar

StartChar: asciitilde
Encoding: 126 126 88
Width: 823
VWidth: 0
Flags: HW
LayerCount: 2
Fore
SplineSet
-8 264 m 25
 217 636 l 25
 217 636 580 219 580 222 c 0
 580 225 835 324 835 324 c 25
 628 63 l 25
 628 63 232 498 232 495 c 0
 232 492 -8 264 -8 264 c 25
EndSplineSet
Validated: 33
EndChar

StartChar: question
Encoding: 63 63 89
Width: 604
VWidth: 0
Flags: HW
LayerCount: 2
Fore
SplineSet
37 525 m 25
 25 651 l 25
 472 834 l 25
 595 696 l 1
 437 269 l 1
 377.173410405 131 l 1
 340 98 l 1
 430 -27 l 1
 319 -78 l 25
 226 -3 l 1
 361 120 l 5
 326.096774194 122 l 1
 266 338 l 1
 490 672 l 1
 439 765 l 25
 151 471 l 25
 37 525 l 25
EndSplineSet
Validated: 524289
EndChar

StartChar: at
Encoding: 64 64 90
Width: 925
VWidth: 0
Flags: HW
LayerCount: 2
Fore
SplineSet
-98.3544921875 413.35546875 m 1
 -97.3662109375 413.206054688 -63.70703125 448.00390625 -63 448.7109375 c 0
 33.296875 434.180664062 -26.2158203125 448.181640625 73 440.35546875 c 1
 181 440.354492188 l 1
 331 434.354492188 l 1
 346 431.35546875 l 2
 346.70703125 430.6484375 380.374023438 396.196289062 381.354492188 396 c 1
 380.374023438 396.196289062 346.70703125 361.3515625 346 360.64453125 c 2
 331 363.64453125 l 1
 181 369.64453125 l 1
 73 369.64453125 l 1
 -26.2158203125 377.471679688 33.296875 363.469726562 -63 378 c 0
 -63.70703125 378.70703125 -97.3662109375 413.206054688 -98.3544921875 413.35546875 c 1
427.64453125 369 m 1
 428.595703125 368.692382812 468.876953125 382.518554688 468 383 c 0
 560 416 l 1
 562 360 l 1
 562 360 729.916127085 296.274099866 799 266.35546875 c 1
 834.35546875 231 l 1
 837.35546875 -93 l 1
 840.354492188 -105 l 2
 839.647460938 -105.70703125 804.756835938 -139.384765625 805 -140.35546875 c 1
 804.756835938 -139.384765625 770.3515625 -105.70703125 769.64453125 -105 c 2
 766.64453125 -93 l 1
 763.830078125 211.010742188 l 1
 742.692338396 220.332408236 547 314 547 314 c 1
 506 282 l 1
 450 345 l 0
 449.291992188 345.708007812 428.595703125 368.692382812 427.64453125 369 c 1
718 941.35546875 m 1
 718.655273438 940.600585938 752.6484375 906.708007812 753.35546875 906.000976562 c 0
 759.84765625 898.524414062 753.208984375 876.538085938 756.35546875 864 c 0
 756.354492188 693.15625 656.689453125 589.102539062 621.354492188 492 c 1
 586 456.64453125 l 1
 445 408.64453125 l 2
 444.29296875 409.3515625 410.591796875 444.322265625 409.64453125 444 c 1
 410.591796875 444.322265625 444.29296875 478.6484375 445 479.35546875 c 2
 561.922851562 519.159179688 l 1
 578.365234375 553.485351562 685.64453125 710.838867188 685.64453125 864 c 0
 682.498046875 876.538085938 689.13671875 898.524414062 682.64453125 906.000976562 c 0
 683.3515625 906.708007812 718.655273438 940.600585938 718 941.35546875 c 1
406 665.35546875 m 1
 406 664.35546875 440.6484375 630.70703125 441.35546875 630 c 2
 441.354492188 621 l 1
 441.35546875 566.999023438 l 1
 426.35546875 288 l 2
 425.6484375 287.29296875 391.053710938 253.643554688 391 252.64453125 c 1
 391.053710938 253.643554688 356.352539062 287.29296875 355.64453125 288 c 2
 370.64453125 566.999023438 l 1
 370.64453125 621 l 1
 370.64453125 630 l 2
 371.3515625 630.70703125 406 664.35546875 406 665.35546875 c 1
364 102 m 1
 363.998046875 101.997070312 363.990234375 101.998046875 363.990234375 101.998046875 c 1
 364 102 266.284179688 168.610351562 266.284179688 168.610351562 c 0
 265.734832852 169.446096634 196 261.98828125 195 262 c 0
 195 262 157.64453125 353.829101562 157.64453125 431.999023438 c 0
 157.64453125 516.880859375 225 610 225 610 c 0
 225.5546875 610.83203125 306.512695312 699.125976562 307 700 c 0
 307 700 435.115234375 767.35546875 514 767.35546875 c 0
 606.232421875 767.35546875 690.674804688 742.08984375 748.3828125 689.572265625 c 0
 749.123046875 688.899414062 784.054136767 655.165199021 783.73828125 654.216796875 c 0
 812 624 l 0
 812.242647086 623.029411656 831.770142484 593.540349794 831.834960938 592.541992188 c 0
 831.834960938 592.541992188 861.35546875 514.658203125 861.35546875 465 c 0
 861.35546875 354.0546875 825.23046875 298.57421875 779.043945312 255.4453125 c 0
 778.3125 254.763671875 744.418709455 220.772713602 743.688476562 220.090820312 c 0
 714.685546875 193.0078125 674 126 674 126 c 0
 601 84.64453125 l 1
 427.000976562 87.64453125 l 1
 366.989257812 98.998046875 l 2
 366.8671875 99.1201171875 365.760742188 100.23828125 364 102 c 1
416.98046875 134.8828125 m 1
 582 124 602 156 602 156 c 0
 602.140625 156.990234375 626.195375958 188.187443201 626.862304688 188.932617188 c 0
 662.887695312 229.184570313 664.399414062 225.005859375 731.782226562 279.703125 c 0
 732.768554688 280.896484375 790.64453125 359.346679688 790.64453125 465 c 0
 790.64453125 530.848632812 799.366210938 520.7734375 743.450195312 625.709960938 c 1
 689.174804688 661.422851562 609.005859375 696.64453125 514 696.64453125 c 0
 440.227539062 696.64453125 402.291015625 688.48046875 303.225585938 619.388671875 c 0
 295.212890625 610.299804688 228.35546875 511.764648438 228.35546875 431.999023438 c 0
 228.35546875 358.73046875 276 218 416.98046875 134.8828125 c 1
EndSplineSet
Validated: 524325
EndChar

StartChar: braceleft
Encoding: 123 123 91
Width: 548
VWidth: 0
Flags: HW
LayerCount: 2
Fore
SplineSet
385.99609375 7.5751953125 m 25
 334.46875 6.41796875 l 25
 346.149414062 194.077148438 l 25
 244 260 l 25
 445.3984375 318.375976562 l 25
 253.327148438 399.793945312 l 25
 413.520507812 467.578125 l 25
 281.668945312 527.579101562 l 25
 416.41796875 576.31640625 l 25
 296.51953125 630.194335938 l 25
 386.534179688 666.366210938 l 25
 300.141601562 703.83203125 l 25
 352.754882812 727.081054688 l 25
 355.833007812 839.500976562 l 25
 390.245117188 841.499023438 l 25
 390.245117188 841.499023438 396.856445312 726.758789062 394.411132812 726.87890625 c 0
 391.965820312 726.999023438 356.6484375 706.58984375 356.6484375 706.58984375 c 25
 356.6484375 706.58984375 454.995117188 662.999023438 450.104492188 663.240234375 c 0
 445.21484375 663.48046875 394.684570312 632.748046875 394.684570312 632.748046875 c 25
 482.252929688 569.387695312 l 25
 374.581054688 523.009765625 l 25
 503.625976562 455.764648438 l 25
 309.743164062 400.709960938 l 25
 489.137695312 310.689453125 l 25
 292.901367188 257.595703125 l 25
 385.631835938 199.517578125 l 25
 369.694335938 74.8115234375 l 25
 491.584960938 61.435546875 l 25
 491.584960938 61.435546875 458.624023438 -110.4140625 453.734375 -110.173828125 c 0
 448.84375 -109.93359375 96.1240234375 -105.502929688 96.1240234375 -105.502929688 c 1
 94.0048828125 499.286132812 l 25
 94.0048828125 499.286132812 142.81640625 495.0390625 142.907226562 496.880859375 c 0
 142.997070312 498.721679688 142.482421875 587.943359375 142.482421875 587.943359375 c 1
 142.482421875 587.943359375 281.579101562 475.913085938 284.0234375 475.79296875 c 0
 286.46875 475.672851562 157.275390625 357.15234375 157.275390625 357.15234375 c 1
 160.594726562 457.87109375 l 1
 116.494140625 458.196289062 l 25
 122.11328125 -75.4091796875 l 25
 396.7734375 -72.30859375 l 25
 385.99609375 7.5751953125 l 25
EndSplineSet
Validated: 524321
EndChar

StartChar: braceright
Encoding: 125 125 92
Width: 452
VWidth: 0
Flags: HW
LayerCount: 2
Fore
SplineSet
135.629882812 69.810546875 m 25
 187.157226562 68.6533203125 l 25
 175.4765625 256.3125 l 25
 277.625976562 322.235351562 l 25
 76.2275390625 380.611328125 l 25
 268.298828125 462.029296875 l 25
 108.10546875 529.813476562 l 25
 239.95703125 589.814453125 l 25
 105.208007812 638.551757812 l 25
 225.106445312 692.4296875 l 25
 135.091796875 728.6015625 l 25
 221.484375 766.067382812 l 25
 168.87109375 789.31640625 l 25
 165.79296875 901.736328125 l 25
 131.380859375 903.734375 l 25
 131.380859375 903.734375 124.76953125 788.994140625 127.21484375 789.114257812 c 0
 129.66015625 789.234375 164.977539062 768.825195312 164.977539062 768.825195312 c 25
 164.977539062 768.825195312 66.630859375 725.234375 71.521484375 725.475585938 c 0
 76.4111328125 725.715820312 126.94140625 694.983398438 126.94140625 694.983398438 c 25
 39.373046875 631.623046875 l 25
 147.044921875 585.245117188 l 25
 18 518 l 25
 211.8828125 462.9453125 l 25
 32.48828125 372.924804688 l 25
 228.724609375 319.831054688 l 25
 135.994140625 261.752929688 l 25
 151.931640625 137.046875 l 25
 30.041015625 123.670898438 l 25
 30.041015625 123.670898438 63.001953125 -48.1787109375 67.8916015625 -47.9384765625 c 0
 72.7822265625 -47.6982421875 425.501953125 -43.267578125 425.501953125 -43.267578125 c 1
 427.62109375 561.521484375 l 25
 427.62109375 561.521484375 378.809570312 557.274414062 378.71875 559.116210938 c 0
 378.62890625 560.95703125 379.143554688 650.178710938 379.143554688 650.178710938 c 1
 379.143554688 650.178710938 240.046875 538.1484375 237.602539062 538.028320312 c 0
 235.157226562 537.908203125 364.350585938 419.387695312 364.350585938 419.387695312 c 1
 361.03125 520.106445312 l 1
 405.131835938 520.431640625 l 25
 399.512695312 -13.173828125 l 25
 124.852539062 -10.0732421875 l 25
 135.629882812 69.810546875 l 25
EndSplineSet
Validated: 524329
EndChar

StartChar: asciicircum
Encoding: 94 94 93
Width: 442
VWidth: 0
Flags: HW
LayerCount: 2
Fore
SplineSet
25 642 m 1
 241 807 l 25
 421 624 l 25
 421 624 388 618 382 618 c 0
 376 618 238 756 238 756 c 25
 238 756 49 603 46 603 c 0
 43 603 25 642 25 642 c 1
EndSplineSet
Validated: 1
EndChar

StartChar: bar
Encoding: 124 124 94
Width: 205
VWidth: 0
Flags: HW
LayerCount: 2
Fore
SplineSet
42.0400390625 116.0625 m 25
 100.434570312 790.237304688 l 25
 124.48046875 790.237304688 l 25
 158.830078125 119.400390625 l 25
 131.349609375 35.962890625 l 25
 67.802734375 45.974609375 l 25
 42.0400390625 116.0625 l 25
EndSplineSet
Validated: 524289
EndChar

